<svg width="1500" height="466" viewBox="0 0 1500 466" fill="none" xmlns="http://www.w3.org/2000/svg">
<g clip-path="url(#clip0_5364_35048)">
<g clip-path="url(#clip1_5364_35048)">
<path d="M252.8 162.4L530.9 90.4L482.3 87.6L260.9 148.9L252.8 162.4Z" fill="url(#paint0_linear_5364_35048)"/>
<path d="M480.2 103.9V109.4C480.2 110.3 479.6 111.1 478.8 111.4L474.8 112.9L466.2 106.1L480.2 103.9Z" fill="url(#paint1_linear_5364_35048)"/>
<path d="M492.5 90L482.3 87.6L459.7 71L452 74.1L464.4 103.9L492.5 90Z" fill="url(#paint2_linear_5364_35048)"/>
<path d="M563.9 84.8V105.6C563.9 106.5 563.4 107.3 562.6 107.7L558.3 109.9L538.3 90.4L563.9 84.8Z" fill="url(#paint3_linear_5364_35048)"/>
<path d="M601 54C602.8 54 606.8 54.3 608.7 57.3C608.7 57.3 610.8 64.1 596.6 70.3L515.8 101C515.8 101 504.4 105 496.9 106.1L456.1 109.2C455 109.3 454 108.4 454 107.3C454 106.7 454.3 106.1 454.7 105.8C457.6 103.5 469.3 94.9 487.5 88.7L571.8 56.6C571.8 56.6 588 48.6 599.1 53.6C599.8 53.9 600.4 54 601 54Z" fill="#FFCDC0"/>
<path d="M499.1 97.6C501.1 97.1 503.1 96.6 505 95.9L608.8 58.9C608.5 61.3 606.6 65.9 596.6 70.4L515.8 101.1C515.8 101.1 504.4 105.1 496.9 106.2L456.1 109.3C455.2 109.4 454.3 108.8 454.1 107.9L499.1 97.6Z" fill="url(#paint4_linear_5364_35048)"/>
<path d="M444.4 95.2L440 97L439.3 96.7L444.5 94.7C445.4 94.4 446.3 94.2 447.3 94.4L477.1 99.3L476.1 99.7L447.3 95C446.2 94.7 445.3 94.8 444.4 95.2Z" fill="url(#paint5_linear_5364_35048)"/>
<path d="M439.9 96.9L444.3 95.1C445.2 94.8 446.1 94.6 447.1 94.8L475.9 99.5L462 105.2L439.9 96.9Z" fill="url(#paint6_linear_5364_35048)"/>
<path d="M544.4 75.4L480.6 61.1C478.1 60.5 475.6 60.3 473 60.3H467.4C467.5 60.2 467.7 60.1 468 60L474.4 59.4C476.1 59.2 477.7 59.3 479.3 59.7L548.6 75L547.5 75.3C546.6 75.6 545.5 75.7 544.4 75.4Z" fill="url(#paint7_linear_5364_35048)"/>
<path d="M473.1 60.3C475.7 60.3 478.2 60.6 480.7 61.1L544.5 75.4C545.5 75.6 546.6 75.6 547.6 75.3L548.7 75L554.8 72C557.4 71.3 559.5 71.7 561 72.4C562.7 73.1 563.7 74.9 563.4 76.7C562.9 80 561.2 84 561.2 84L569.4 80.9C564.8 85.3 559.3 88.7 553.3 90.8L531.5 98.3C525.7 100.6 519.3 100 519.3 100L522 99L513.6 96.8C512.7 96.6 512.2 95.5 512.8 94.6C514.8 91.5 520.8 87.7 520.8 87.7L511.4 79.9L467.8 61.9C467.1 61.6 467.1 60.8 467.5 60.4H473.1V60.3Z" fill="url(#paint8_linear_5364_35048)"/>
<path d="M485.4 66.3L488.3 64.4L526.2 75.6L537.4 83V84.9L549.9 91.1L559.5 102.2L549.4 91.8L538.8 95.2L530.9 90.4L533.5 89.4L534.9 84.3L528.8 87.2L515 77.3L519.4 75.1L488.9 65.1L485.4 66.3Z" fill="url(#paint9_linear_5364_35048)"/>
<path d="M533.1 74.4L535.4 72.8C537.2 71.5 539.2 70.5 541.4 69.9L548 67.9L551.6 80L544.9 81.9C542.8 82.5 540.7 82.7 538.5 82.7L535.5 82.6C534.3 82.6 533 82.6 531.8 82.8L530.8 82.9C530.9 81.4 530.7 79 529.1 76.6L529.8 76.3C530.9 75.8 532 75.2 533.1 74.4Z" fill="url(#paint10_linear_5364_35048)"/>
<path d="M526.5 77.8L529 76.7C530.6 79 530.8 81.4 530.7 83L528.1 83.4C528.1 83.3 525.3 81.4 526.5 77.8Z" fill="#0C0D0D"/>
<path d="M548 67.9C549.1 67.6 550.7 70.1 551.7 73.4C552.7 76.7 552.6 79.7 551.5 80C550.4 80.3 548.8 77.8 547.8 74.5C546.8 71.2 546.9 68.2 548 67.9Z" fill="url(#paint11_linear_5364_35048)"/>
<path d="M550.7 73.7C551.5 76.5 551.6 79.1 551 80C550 79.6 548.7 77.4 547.8 74.6C546.9 71.8 546.9 69.2 547.5 68.3C548.6 68.6 549.9 70.8 550.7 73.7Z" fill="#14233A"/>
<path d="M559.299 91L561.399 89.5C563.099 88.3 564.999 87.4 566.999 86.8L573.199 84.9L576.499 96.3L570.199 98.1C568.299 98.6 566.199 98.9 564.199 98.8L561.399 98.7C560.199 98.7 559.099 98.7 557.899 98.9L556.999 99C557.099 97.5 556.899 95.3 555.399 93.1L555.999 92.8C557.199 92.4 558.299 91.7 559.299 91Z" fill="url(#paint12_linear_5364_35048)"/>
<path d="M553.099 94.2L555.4 93.2C556.9 95.4 557.099 97.6 556.999 99.1L554.599 99.4C554.599 99.4 551.999 97.6 553.099 94.2Z" fill="#0C0D0D"/>
<path d="M573.2 85C574.2 84.7 575.7 87 576.7 90.2C577.6 93.3 577.6 96.1 576.6 96.4C575.6 96.7 574.1 94.4 573.1 91.2C572.2 88 572.2 85.3 573.2 85Z" fill="url(#paint13_linear_5364_35048)"/>
<path d="M575.8 90.3C576.6 93 576.6 95.4 576 96.2C575 95.8 573.8 93.7 573 91.1C572.2 88.5 572.2 86 572.8 85.2C573.8 85.6 575 87.7 575.8 90.3Z" fill="#14233A"/>
<path d="M589.1 55.9L589.9 53.3C589.9 53.3 590.5 53.2 591.4 53L591.1 55.2C590.2 55.4 589.6 55.7 589.1 55.9Z" fill="#0C0D0D"/>
<path d="M594.4 52.5L595.7 54.3C594.4 54.5 593 54.7 591.8 55L592.1 52.8C592.8 52.7 593.6 52.6 594.4 52.5Z" fill="#0C0D0D"/>
<path d="M595.5 52.4C597.4 52.8 599.5 53.7 599.5 53.7L600.099 53.9C600.099 53.9 598.599 54 596.699 54.2L595.5 52.4Z" fill="#0C0D0D"/>
<path d="M571.299 61.8C571.499 61.8 571.699 61.6 571.699 61.4V60.6C571.699 60.4 571.499 60.2 571.299 60.2C571.099 60.2 570.899 60.4 570.899 60.6V61.4C570.899 61.6 571.099 61.8 571.299 61.8Z" fill="#0C0D0D"/>
<path d="M566.4 63.7C566.6 63.7 566.8 63.5 566.8 63.3V62.5C566.8 62.3 566.6 62.1 566.4 62.1C566.2 62.1 566 62.3 566 62.5V63.3C566 63.5 566.1 63.7 566.4 63.7Z" fill="#0C0D0D"/>
<path d="M561.5 65.4C561.7 65.4 561.9 65.2 561.9 65V64.2C561.9 64 561.7 63.8 561.5 63.8C561.3 63.8 561.1 64 561.1 64.2V65C561.1 65.2 561.2 65.4 561.5 65.4Z" fill="#0C0D0D"/>
<path d="M556.5 67.2C556.7 67.2 556.9 67 556.9 66.8V66C556.9 65.8 556.7 65.6 556.5 65.6C556.3 65.6 556.1 65.8 556.1 66V66.8C556 67 556.2 67.2 556.5 67.2Z" fill="#0C0D0D"/>
<path d="M551.5 69.3C551.7 69.3 551.9 69.1 551.9 68.9V68.1C551.9 67.9 551.7 67.7 551.5 67.7C551.3 67.7 551.1 67.9 551.1 68.1V68.9C551.1 69.1 551.3 69.3 551.5 69.3Z" fill="#0C0D0D"/>
<path d="M568.799 62.7C568.999 62.7 569.199 62.5 569.199 62.3V61.5C569.199 61.3 568.999 61.1 568.799 61.1C568.599 61.1 568.399 61.3 568.399 61.5V62.3C568.399 62.6 568.599 62.7 568.799 62.7Z" fill="#0C0D0D"/>
<path d="M563.799 64.6C563.999 64.6 564.199 64.4 564.199 64.2V63.4C564.199 63.2 563.999 63 563.799 63C563.599 63 563.399 63.2 563.399 63.4V64.2C563.399 64.4 563.599 64.6 563.799 64.6Z" fill="#0C0D0D"/>
<path d="M559.1 66.4C559.3 66.4 559.5 66.2 559.5 66V65.2C559.5 65 559.3 64.8 559.1 64.8C558.9 64.8 558.7 65 558.7 65.2V66C558.7 66.2 558.8 66.4 559.1 66.4Z" fill="#0C0D0D"/>
<path d="M554.1 68.3C554.3 68.3 554.5 68.1 554.5 67.9V67.1C554.5 66.9 554.3 66.7 554.1 66.7C553.9 66.7 553.7 66.9 553.7 67.1V67.9C553.7 68.1 553.9 68.3 554.1 68.3Z" fill="#0C0D0D"/>
<path d="M510 84.9C510.2 84.9 510.4 84.7 510.4 84.5V83.7C510.4 83.5 510.2 83.3 510 83.3C509.8 83.3 509.6 83.5 509.6 83.7V84.5C509.6 84.8 509.8 84.9 510 84.9Z" fill="#0C0D0D"/>
<path d="M505.2 86.9C505.4 86.9 505.6 86.7 505.6 86.5V85.7C505.6 85.5 505.4 85.3 505.2 85.3C505 85.3 504.8 85.5 504.8 85.7V86.5C504.8 86.7 505 86.9 505.2 86.9Z" fill="#0C0D0D"/>
<path d="M500.4 88.7C500.6 88.7 500.8 88.5 500.8 88.3V87.5C500.8 87.3 500.6 87.1 500.4 87.1C500.2 87.1 500 87.3 500 87.5V88.3C500 88.5 500.2 88.7 500.4 88.7Z" fill="#0C0D0D"/>
<path d="M495.7 90.6C495.9 90.6 496.1 90.4 496.1 90.2V89.4C496.1 89.2 495.9 89 495.7 89C495.5 89 495.3 89.2 495.3 89.4V90.2C495.3 90.4 495.5 90.6 495.7 90.6Z" fill="#0C0D0D"/>
<path d="M512.4 84.1C512.6 84.1 512.8 83.9 512.8 83.7V82.9C512.8 82.7 512.6 82.5 512.4 82.5C512.2 82.5 512 82.7 512 82.9V83.7C512 84 512.2 84.1 512.4 84.1Z" fill="#0C0D0D"/>
<path d="M507.6 86.1C507.8 86.1 508 85.9 508 85.7V84.9C508 84.7 507.8 84.5 507.6 84.5C507.4 84.5 507.2 84.7 507.2 84.9V85.7C507.2 85.9 507.4 86.1 507.6 86.1Z" fill="#0C0D0D"/>
<path d="M502.8 87.9C503 87.9 503.2 87.7 503.2 87.5V86.7C503.2 86.5 503 86.3 502.8 86.3C502.6 86.3 502.4 86.5 502.4 86.7V87.5C502.4 87.7 502.6 87.9 502.8 87.9Z" fill="#0C0D0D"/>
<path d="M498.1 89.7C498.3 89.7 498.5 89.5 498.5 89.3V88.5C498.5 88.3 498.3 88.1 498.1 88.1C497.9 88.1 497.7 88.3 497.7 88.5V89.3C497.7 89.5 497.9 89.7 498.1 89.7Z" fill="#0C0D0D"/>
<path d="M493.3 91.5C493.5 91.5 493.7 91.3 493.7 91.1V90.3C493.7 90.1 493.5 89.9 493.3 89.9C493.1 89.9 492.9 90.1 492.9 90.3V91.1C492.9 91.3 493.1 91.5 493.3 91.5Z" fill="#0C0D0D"/>
<path d="M520.8 74.4L509.1 81L505.6 82L507.9 78.4L521.5 73C521.5 73.6 521.2 74.1 520.8 74.4Z" fill="url(#paint14_linear_5364_35048)"/>
<path d="M503.7 69.3L494.6 74.5L491.9 75.3L493.7 72.5L504.3 68.3C504.3 68.7 504.1 69.1 503.7 69.3Z" fill="url(#paint15_linear_5364_35048)"/>
<path d="M556.5 91.4L544.8 98L541.3 99L543.6 95.4L557.2 90C557.2 90.6 556.9 91.1 556.5 91.4Z" fill="url(#paint16_linear_5364_35048)"/>
<path d="M561.8 100.4L552.7 105.6L550 106.4L551.8 103.6L562.4 99.4C562.4 99.8 562.2 100.2 561.8 100.4Z" fill="url(#paint17_linear_5364_35048)"/>
<path d="M-109.2 326.1C-109.2 326.1 -61.8002 252.8 -7.50024 266.3L50.0997 295.4C50.0997 295.4 215.8 133 314.4 205.2L368.6 239.3C368.6 239.3 435.4 153.5 524.5 175.1C524.5 175.1 517.7 134.3 568.6 151.2L702 213.1C702 213.1 821 142.7 841.3 188.4L866.7 249.4C866.7 249.4 922.6 240.9 927.7 276.5C927.7 276.5 1112.4 280.9 1158.1 326.1H-109.2Z" fill="url(#paint18_linear_5364_35048)"/>
<path d="M2381.7 324.8H-1440V433.9H2381.7V324.8Z" fill="url(#paint19_linear_5364_35048)"/>
<path d="M435.3 335.2H315.9C315.9 335.2 326.7 335.7 330.2 332.2C330.2 332.2 343.5 336 373.4 333.3C373.4 333.3 394.6 336 400.4 332.2C400.5 332.2 406.9 335.3 435.3 335.2Z" fill="url(#paint20_linear_5364_35048)"/>
<path d="M522.8 349.6H403.4C403.4 349.6 414.2 350.1 417.7 346.6C417.7 346.6 431 350.4 460.9 347.7C460.9 347.7 482.1 350.4 487.9 346.6C487.9 346.6 494.4 349.6 522.8 349.6Z" fill="url(#paint21_linear_5364_35048)"/>
<path d="M928.8 335.2H809.4C809.4 335.2 820.2 335.7 823.7 332.2C823.7 332.2 837 336 866.9 333.3C866.9 333.3 888.1 336 893.9 332.2C893.9 332.2 900.4 335.3 928.8 335.2Z" fill="url(#paint22_linear_5364_35048)"/>
<path d="M1016.2 349.6H896.8C896.8 349.6 907.6 350.1 911.1 346.6C911.1 346.6 924.4 350.4 954.3 347.7C954.3 347.7 975.5 350.4 981.3 346.6C981.4 346.6 987.8 349.6 1016.2 349.6Z" fill="url(#paint23_linear_5364_35048)"/>
<path d="M604.5 335.2H485.1C485.1 335.2 495.9 335.7 499.4 332.2C499.4 332.2 512.7 336 542.6 333.3C542.6 333.3 563.8 336 569.6 332.2C569.6 332.2 576.1 335.3 604.5 335.2Z" fill="url(#paint24_linear_5364_35048)"/>
<path d="M691.899 349.6H572.5C572.5 349.6 583.3 350.1 586.8 346.6C586.8 346.6 600.1 350.4 630 347.7C630 347.7 651.2 350.4 657 346.6C657.1 346.6 663.499 349.6 691.899 349.6Z" fill="url(#paint25_linear_5364_35048)"/>
<path fill-rule="evenodd" clip-rule="evenodd" d="M670.6 311.8C670.6 311.5 670.7 311.7 670.5 311.3L670.399 311.4C670.399 311.6 670.399 311.7 670.399 311.9C670.399 311.9 670.5 311.8 670.6 311.8Z" fill="url(#paint26_linear_5364_35048)"/>
<path fill-rule="evenodd" clip-rule="evenodd" d="M667.4 313.1C667.6 313.2 667.7 313.2 667.9 313.3C668 313.2 668.1 313 668.2 312.9C667.8 312.3 668 312.1 667.5 311.4C666.8 312.1 667.2 312.2 666.7 312.9C667 313.3 666.9 313.3 667.4 313.1Z" fill="url(#paint27_linear_5364_35048)"/>
<path fill-rule="evenodd" clip-rule="evenodd" d="M665.9 313L665.8 312.8C665.5 313.2 665.6 313.1 665.6 313.4C665.7 313.3 665.8 313.2 665.9 313Z" fill="url(#paint28_linear_5364_35048)"/>
<path fill-rule="evenodd" clip-rule="evenodd" d="M645 320.7C645.5 320.3 645.899 320 646.399 319.6C646.799 319.9 647.299 320.1 647.699 320.4C648.699 319.9 649.2 320 650 319.9C650.6 319.8 653.399 317.6 654.399 317.5C654.799 317.6 655.1 317.8 655.5 317.9C657.6 316.3 659.9 315.2 662.1 315.9C662.8 315.1 664.2 314.3 664.3 313.3C664.3 313.2 664.299 313 664.199 312.9L664.1 312.8C663.4 313.1 663.099 312.6 662.399 312.8C662.399 312.9 662.3 313 662.3 313C662.8 313.4 663 313.6 663 314.1L662.5 314.6C661.6 314 661.2 314.8 660.3 314.4C660.3 314.3 660.099 314 659.899 313.6C658.499 314.4 657.1 315.5 655.5 315.6C654.7 315.6 654.1 315.2 653.3 315.6C653.4 316.1 653.199 316.8 653.199 317.2L652.8 317.5C651.9 316.9 645.9 317.6 644.6 318.6C645 319.4 644.8 319.9 645 320.7Z" fill="url(#paint29_linear_5364_35048)"/>
<path fill-rule="evenodd" clip-rule="evenodd" d="M638.699 322.3C638.599 322.4 638.6 322.5 638.5 322.6C638.8 322.7 639.099 322.8 639.399 322.9C639.799 322.9 640.2 322.8 640.5 322.8C640.9 322.3 641.3 321.8 641.6 321.3C641.3 320.9 641 320.4 640.8 320C640 320 639.499 319.7 638.699 320.2C638.399 321.2 638.1 321.5 637.6 322.3L637.699 322.5C638.299 322.1 638.199 322.1 638.699 322.3Z" fill="url(#paint30_linear_5364_35048)"/>
<path fill-rule="evenodd" clip-rule="evenodd" d="M644.1 318.6C643.7 319 643.2 319.5 643.2 319.8L644.3 318.8L644.1 318.6Z" fill="url(#paint31_linear_5364_35048)"/>
<path fill-rule="evenodd" clip-rule="evenodd" d="M631.8 325.1L632.1 325.5L632.2 325.4C632.3 325 632.2 325 632.5 324.5C634.3 325.5 635.6 323.9 637.3 323.6C637.2 323.3 637.1 322.9 637 322.6C635.6 322.8 634.4 321.7 632.9 322C632.5 322.8 632.4 323.4 631.8 324.2C632 324.3 632.2 324.4 632.4 324.5C632.1 324.7 631.9 324.9 631.8 325.1Z" fill="url(#paint32_linear_5364_35048)"/>
<path fill-rule="evenodd" clip-rule="evenodd" d="M626.899 326.6C626.899 327.1 626.799 327.2 627.199 327.6C627.899 327.4 628.8 326.7 629.5 326.8C630.5 325.8 630.2 324.9 630.3 323.9C629.9 323.7 629.599 323.4 629.199 323.5C628.399 323.5 626.6 325 626.1 325.5C625.2 324.7 624.9 325.1 624.1 325.5C625.1 326.6 625.799 326.1 626.899 326.6Z" fill="url(#paint33_linear_5364_35048)"/>
<path fill-rule="evenodd" clip-rule="evenodd" d="M567.1 345.9C567.6 344.4 566.5 343.6 565.2 343.8C564.9 344.2 564.6 344.6 564.3 345C564.9 345.7 565.6 346.4 566.2 347.1C566.4 346.6 566.9 346.6 567.1 345.9Z" fill="url(#paint34_linear_5364_35048)"/>
<path fill-rule="evenodd" clip-rule="evenodd" d="M741.1 330.2L742 329.9L731.3 316.3L681.8 322.4L621.1 329.5C621.2 329.2 621.3 329 621.6 328.6C621.8 328.6 622 328.6 622.2 328.6C622.6 329.1 622.4 329.1 622.7 329.2C623 329.4 622.8 329.3 623.1 329.3C623.3 329.3 623.4 329.2 623.6 329.2C624.1 328.5 624.2 327.8 624.5 327.1C624 326.9 624 326.9 623.9 326.4C623.8 326.3 623.7 326.3 623.6 326.2C623.1 327 623.5 327.4 622.7 328.2C622.3 328.1 622.2 328.1 621.7 328.3C620.1 326.3 619.3 327.4 618 328.3C617.4 328 616.8 327.7 616.3 327.4C616 328 615.6 328.4 615.6 329.1C616.2 329.3 616.4 329.3 616.8 330L616.7 330.1L613.2 330.5C612.9 330.4 612.6 330.3 612.4 330.3C612 330.3 611.8 330.6 611.5 330.7L610.5 330.8C610 330.6 609.6 330.3 609 330.4C608.6 331 608.5 331.3 607.9 331.7C607.3 331.4 607.2 331.6 606.6 331.8C606 331.1 606.1 331.3 605.5 330.9C603.6 332.1 602.4 333.1 600.7 334.7C599.8 334.4 598.8 334.4 597.9 333.5C596.4 334.7 594.4 334.5 593.1 335.4C592.7 334.9 593 334.7 592.7 334.8C592.1 334.8 591.3 335.1 590.8 335.4C591.1 336.1 590.8 336.5 590.9 337.2C591.2 337.9 591.6 338.6 591.9 339.3L587 341C587.2 340.6 587.4 340.1 587.7 339.7C587.8 339.7 588 339.8 588.1 339.8C588.4 339.9 588.7 340.1 589 340.3C589.6 339.7 590.2 339.5 589.8 338.5C589.1 338.6 589.4 338.3 588.9 338L587.6 338.7C586.4 337.6 584.3 336.6 582.9 337.6C582.4 338.9 582.1 339.4 580.7 339.6C580.2 340.4 579.8 341.7 579.9 342.6C580.4 342.9 580.9 343 581.4 343L576.4 345C576.9 344.2 577.3 343.4 577.2 343.1C577.3 342.6 577.1 342.5 576.7 342C576.9 341.9 577.1 341.7 577.4 341.5C576.8 341 576.9 341.1 576.5 340.5C575.7 340.8 572.1 342.1 571.6 342.7C571.1 343.2 571.4 343.7 570.7 344.4C570.4 344.4 570.2 344.4 569.9 344.4C569.8 344.3 569.7 344.3 569.6 344.2C569.8 343.7 569.8 343.1 569.5 342.6C569.2 342.6 568.8 342.7 568.5 342.7C568.5 343.3 568.5 343.8 568.5 344.4C569.4 345.3 569.3 345.4 570 346.3L573.5 346.2L523.9 365.7H523.8C502 373.4 479.2 377.9 456.1 379.1L325.8 386.2C325.8 386.2 471.2 391.7 512.6 383C545.6 376 618.8 363.9 647 359.3C645.9 359.7 642.8 360.9 642.2 361.5C641.7 362 642 362.5 641.3 363.2C641 363.2 640.8 363.2 640.5 363.2C640.4 363.1 640.3 363.1 640.2 363C640.3 362.5 640.4 361.9 640.1 361.4C639.8 361.4 639.4 361.5 639.1 361.5C639.1 362.1 639.1 362.6 639.1 363.2C640 364.1 639.9 364.2 640.6 365.1L646.2 364.9C646.8 364.3 648 362.4 647.8 361.9C647.9 361.4 647.7 361.3 647.3 360.8C647.5 360.7 647.7 360.5 648 360.3C647.4 359.8 647.5 359.9 647.1 359.3C648.6 359.1 650 358.8 651.2 358.6C650.8 359.4 650.4 360.5 650.5 361.4C652.7 362.5 654 360.8 656.2 360.2C656.5 360.8 656.2 360.7 656.6 361.4L656.8 361.3C657.8 360.8 657.7 359.5 658.5 358.5C658.6 358.5 658.8 358.6 658.9 358.6C659.2 358.7 659.5 358.9 659.8 359.1C660.4 358.5 661 358.3 660.6 357.3C660 357.3 660.1 357.2 659.9 356.9L661.9 356.2C662.4 357.2 662.8 358.1 663.3 359.1C663.5 359.1 663.8 359.1 664 359.1C664.3 358.7 664.5 358.6 664.6 358.2C664.8 357.3 664.3 356.9 665.2 356C665.6 356.4 666.1 357 666.2 357C667.6 356.8 669.1 355.1 670 354.3L670.4 354.7C670.5 355.2 670.7 355.5 671.1 355.8C671.5 355.9 671.8 356 672.1 356.1C673.4 355.1 674 354.2 675.4 354.1L674.8 353.4C675.7 353 676.5 352.6 677.4 352.2C677.6 352.5 677.8 352.9 678 353.2C678.2 352.7 678.4 352.3 678.6 351.8C679.9 352.5 680.9 351 682.2 352C682.8 351.4 684.1 350.7 685 350.5C684.9 350.2 684.9 349.9 684.8 349.6C684.4 349.6 683.7 349.1 683.3 349.1C682.7 349.1 682.3 349.8 681.7 349.7C681.3 349.7 681.1 349.5 680.8 349.4L686.5 347.3C686.4 347.5 686.4 347.7 686.4 347.9C687 348.1 687.2 348.1 687.6 348.8C687.3 349.2 686.9 349.5 686.7 349.9L687.3 350.6C687.7 350.4 688.2 350.1 688.7 349.9C688.7 349 688.4 348.5 689 347.6L689.5 348.1C689.7 348.6 689.7 348.5 689.5 349C690.1 349.1 690.9 349.5 691.5 349.7C691.9 348.9 691.7 348.4 692.4 347.6C692.6 347.6 692.8 347.6 693 347.6C693.4 348.1 693.2 348.1 693.5 348.2C693.8 348.4 693.6 348.3 693.9 348.3C694.1 348.3 694.2 348.2 694.4 348.2C694.9 347.5 695 346.8 695.3 346.1C694.8 345.9 694.8 345.9 694.7 345.4C694.6 345.3 694.5 345.3 694.4 345.2C693.9 346 694.3 346.4 693.5 347.2C693.1 347.1 693 347.1 692.5 347.3C690.9 345.3 690.1 346.4 688.8 347.3C688.6 347.2 688.3 347 688.1 346.9L695.3 344.3C695.2 344.4 695 344.5 694.8 344.6C695.7 345.7 696.5 345.2 697.6 345.7C697.6 346.2 697.5 346.3 697.9 346.7C698.6 346.5 699.5 345.8 700.2 345.9C701.2 344.9 700.9 344 701 343C700.7 342.9 700.4 342.7 700.2 342.6L703.3 341.5C703 342.1 702.9 342.7 702.4 343.4C702.6 343.5 702.8 343.6 703 343.7C702.8 343.9 702.6 344.1 702.5 344.3L702.8 344.7L702.9 344.6C703 344.2 702.9 344.2 703.2 343.7C705 344.7 706.3 343.1 708 342.8C707.9 342.5 707.8 342.1 707.7 341.8C706.7 342 705.8 341.4 704.8 341.2L709.2 340.2C709 340.7 708.7 341 708.4 341.5L708.5 341.7C709 341.3 708.9 341.3 709.4 341.5C709.3 341.6 709.3 341.7 709.2 341.8C709.5 341.9 709.8 342 710.1 342.1C710.5 342.1 710.9 342 711.2 342C711.6 341.5 712 341 712.3 340.5C712.1 340.2 711.9 339.9 711.7 339.5L713.8 339L715.5 338.5C715.5 338.9 715.5 339.3 715.6 339.7L715.7 339.8C716.2 339.4 716.6 339.1 717.1 338.7C717.5 339 718 339.2 718.4 339.5C719.4 339 719.9 339.1 720.7 339C721.3 338.9 724.1 336.7 725.1 336.6C725.5 336.7 725.8 336.9 726.2 337C728.3 335.4 730.6 334.3 732.8 335C733.5 334.2 734.9 333.4 735 332.4L736.4 331.9C736.2 332.2 736.2 332.1 736.3 332.5C736.4 332.3 736.5 332.2 736.7 332L736.6 331.9L737.6 331.6C737.5 331.7 737.5 331.8 737.4 331.9C737.9 332.3 737.7 332.3 738.2 332.1C738.4 332.2 738.5 332.2 738.7 332.3C738.8 332.2 738.9 332 739 331.9C738.9 331.6 738.8 331.4 738.7 331.3L741.2 330.5C741.2 330.6 741.2 330.8 741.2 330.9C741.3 330.9 741.4 330.9 741.4 330.8C741.2 330.3 741.2 330.5 741.1 330.2ZM584 342.1C584.5 341.9 585 341.6 585.6 341.5V341.6L584 342.1ZM594 338.6C594 338.2 594 337.8 594.6 337.2C594.9 337.5 595.4 338 595.5 338.1L594 338.6ZM596.9 337.6C597.8 337 598.7 336 599.3 335.4L599.7 335.8C599.8 336 599.9 336.3 600 336.4L596.9 337.6ZM618.9 329.8L618 329.9C618 329.5 618 329.1 618.4 328.7L618.9 329.2C618.9 329.5 619 329.6 618.9 329.8ZM671.5 353.4C671.1 353.3 670.7 353.2 670.3 353.1L672.9 352.2C672.4 352.6 672 353 671.5 353.4ZM678.7 350.4C678.5 350.3 678.3 350.2 678.1 350.2L679.3 349.7C679.2 350 679 350.2 678.7 350.4ZM696.7 344.2C696.3 343.9 696 343.8 695.8 343.8L698.5 342.8C697.8 343.3 697 343.9 696.7 344.2ZM723.9 336.1L723.5 336.4C723.2 336.2 722.6 336.2 721.7 336.2L723.9 335.5C723.9 335.7 723.9 335.9 723.9 336.1ZM733.1 333.5C732.2 333 731.8 333.6 731.1 333.4L733.6 332.6C733.7 332.7 733.7 332.9 733.7 333.1L733.1 333.5Z" fill="url(#paint35_linear_5364_35048)"/>
<path fill-rule="evenodd" clip-rule="evenodd" d="M635.8 362.5C635.5 362.9 635.199 363.3 634.899 363.7C635.499 364.4 636.2 365.1 636.8 365.8C637.1 365.3 637.499 365.2 637.699 364.6C638.199 363.2 637.1 362.3 635.8 362.5Z" fill="url(#paint36_linear_5364_35048)"/>
<path d="M687.1 263.4H687.3L687 261.4L659.7 265.5L659.9 267.3H660.1L659.9 265.6L686.8 261.6L687.1 263.4Z" fill="#17335A"/>
<path d="M684.559 261.802L684.361 261.831L684.655 263.81L684.852 263.78L684.559 261.802Z" fill="#17335A"/>
<path d="M681.755 262.197L681.558 262.226L681.851 264.204L682.049 264.175L681.755 262.197Z" fill="#17335A"/>
<path d="M678.967 262.69L678.769 262.72L679.062 264.698L679.26 264.669L678.967 262.69Z" fill="#17335A"/>
<path d="M676.064 263.1L675.866 263.129L676.159 265.107L676.357 265.078L676.064 263.1Z" fill="#17335A"/>
<path d="M673.26 263.494L673.062 263.524L673.356 265.502L673.553 265.473L673.26 263.494Z" fill="#17335A"/>
<path d="M670.457 263.891L670.259 263.92L670.552 265.898L670.751 265.869L670.457 263.891Z" fill="#17335A"/>
<path d="M667.554 264.3L667.356 264.329L667.65 266.308L667.847 266.278L667.554 264.3Z" fill="#17335A"/>
<path d="M664.765 264.792L664.567 264.821L664.861 266.8L665.058 266.771L664.765 264.792Z" fill="#17335A"/>
<path d="M661.863 265.203L661.666 265.232L661.959 267.211L662.157 267.181L661.863 265.203Z" fill="#17335A"/>
<path d="M714.2 259.4L714.4 259.3L714.1 257.4L686.8 261.4L687.1 263.2H687.3L687 261.6L714 257.6L714.2 259.4Z" fill="#17335A"/>
<path d="M711.765 257.795L711.567 257.824L711.861 259.802L712.058 259.773L711.765 257.795Z" fill="#17335A"/>
<path d="M715.4 260H715.6L715.3 258.4L715.2 258.3L715.4 260Z" fill="#17335A"/>
<path d="M714.1 257.4L714 257.5L716.9 259.7L717 259.6L714.1 257.4Z" fill="#17335A"/>
<path d="M716.3 260.9L716.5 260.8L716.2 259.1L716 258.9L716.3 260.9Z" fill="#17335A"/>
<path d="M717.199 261.9L717.399 261.8L717 259.6L716.899 259.7L717.199 261.9Z" fill="#17335A"/>
<path d="M708.865 258.204L708.667 258.233L708.96 260.211L709.158 260.182L708.865 258.204Z" fill="#17335A"/>
<path d="M706.061 258.598L705.863 258.628L706.156 260.606L706.354 260.577L706.061 258.598Z" fill="#17335A"/>
<path d="M703.257 258.993L703.06 259.022L703.353 261.001L703.551 260.972L703.257 258.993Z" fill="#17335A"/>
<path d="M700.355 259.404L700.157 259.433L700.45 261.412L700.648 261.382L700.355 259.404Z" fill="#17335A"/>
<path d="M697.566 259.896L697.368 259.925L697.661 261.904L697.859 261.875L697.566 259.896Z" fill="#17335A"/>
<path d="M694.762 260.291L694.564 260.32L694.858 262.299L695.055 262.269L694.762 260.291Z" fill="#17335A"/>
<path d="M691.86 260.7L691.662 260.73L691.955 262.708L692.153 262.679L691.86 260.7Z" fill="#17335A"/>
<path d="M689.058 261.096L688.86 261.126L689.154 263.104L689.351 263.075L689.058 261.096Z" fill="#17335A"/>
<path d="M714.8 259.6L714.399 259L660.1 266.9L662 268.2L661.399 268.9L666.899 272.1L660.6 299.2L705.399 306.2L705 274.4L713.899 267.5L713.699 265.6L713.6 261.8C714.5 261.4 714.9 260.5 714.8 259.6Z" fill="url(#paint37_linear_5364_35048)"/>
<path d="M711.3 265.5L706 266.2V262.2L711.3 261.4V265.5Z" fill="url(#paint38_linear_5364_35048)"/>
<path d="M705.2 266.5L699.8 267.2V263.2L705.1 262.4L705.2 266.5Z" fill="url(#paint39_linear_5364_35048)"/>
<path d="M699 267.4L693.7 268.2V264.2L699 263.4V267.4Z" fill="url(#paint40_linear_5364_35048)"/>
<path d="M692.9 268.4L687.6 269.1V265.2L692.9 264.4V268.4Z" fill="url(#paint41_linear_5364_35048)"/>
<path d="M686.8 269.4L681.4 270.1V266.1L686.7 265.4L686.8 269.4Z" fill="url(#paint42_linear_5364_35048)"/>
<path d="M680.6 270.4L675.3 271.1V267.1L680.6 266.4V270.4Z" fill="url(#paint43_linear_5364_35048)"/>
<path d="M674.5 271.4L669.1 272.1V268.1L674.4 267.3L674.5 271.4Z" fill="url(#paint44_linear_5364_35048)"/>
<path d="M668.4 272.3L663 273.1V269.1L668.3 268.3L668.4 272.3Z" fill="url(#paint45_linear_5364_35048)"/>
<path d="M704 304.6L703.2 276.9C703.2 276.9 702.9 273.1 706.5 271.1C710.1 269.1 713.9 266.9 713.9 266.9L716.6 269.3C716.6 269.3 706.5 273.4 706.2 276.8C705.9 280.1 706.8 306.6 706.8 306.6L704 304.6Z" fill="url(#paint46_linear_5364_35048)"/>
<path d="M714.5 259C714.5 259 715 260.7 713.7 261.8V267.2L716.6 269.4L716.5 263.9C716.5 263.9 718 262.8 717.3 261.5L714.5 259Z" fill="url(#paint47_linear_5364_35048)"/>
<path d="M672.7 278.9L670 279.1L670.1 277.1L672.8 276.8L672.7 278.9Z" fill="url(#paint48_linear_5364_35048)"/>
<path d="M678.6 278.1L675.9 278.4L676 276.4L678.7 276.1L678.6 278.1Z" fill="url(#paint49_linear_5364_35048)"/>
<path d="M684.6 277.4L681.9 277.6L682 275.6L684.6 275.4V277.4Z" fill="url(#paint50_linear_5364_35048)"/>
<path d="M690.5 276.7L687.8 276.9L687.9 274.9L690.6 274.6L690.5 276.7Z" fill="url(#paint51_linear_5364_35048)"/>
<path d="M696.4 275.9L693.7 276.2L693.8 274.2L696.5 273.9L696.4 275.9Z" fill="url(#paint52_linear_5364_35048)"/>
<path d="M672.6 285.5L669.9 285.8L670 283.8L672.6 283.5V285.5Z" fill="url(#paint53_linear_5364_35048)"/>
<path d="M678.5 284.8L675.8 285L675.9 283L678.6 282.8L678.5 284.8Z" fill="url(#paint54_linear_5364_35048)"/>
<path d="M684.4 284.1L681.7 284.3L681.8 282.3L684.5 282L684.4 284.1Z" fill="url(#paint55_linear_5364_35048)"/>
<path d="M690.3 283.3L687.6 283.6L687.7 281.6L690.4 281.3L690.3 283.3Z" fill="url(#paint56_linear_5364_35048)"/>
<path d="M696.2 282.6L693.5 282.8L693.6 280.8L696.3 280.6L696.2 282.6Z" fill="url(#paint57_linear_5364_35048)"/>
<path d="M595.8 294.2L596.2 262.8L660 260.3L669.8 264L669.7 270.1L673.6 270L683.8 274H686.8L697.1 278L696.9 284.4L706.4 287.1L706.1 285.3L712.1 285.4L721.1 288.9V291.6H723.3L731.5 294.5V296.8H733.8L741.2 299.7V300.5H743L750 303.2L749.7 313.3L654 299.4L595.8 294.2Z" fill="#080E13"/>
<path d="M749.9 306.9L743 304.6L743.1 300.6L750 303.2L749.9 306.9Z" fill="#D87627"/>
<path d="M749.9 311.4L742.9 309.2L743 304.9L749.9 307.3V311.4Z" fill="#F05D22"/>
<path d="M749.7 313L748.9 314H742.7L742.9 309.8L749.8 311.8L749.7 313Z" fill="#D87627"/>
<path d="M741.188 300.525L741.111 304.625L743.01 304.66L743.088 300.561L741.188 300.525Z" fill="#EE8522"/>
<path d="M740.795 309.814L740.714 314.114L742.814 314.153L742.895 309.854L740.795 309.814Z" fill="#EE8522"/>
<path d="M741.131 304.983L741.05 309.282L742.95 309.318L743.031 305.019L741.131 304.983Z" fill="#E53B25"/>
<path d="M741.2 303.6L733.8 301.2V296.9L741.2 299.7V303.6Z" fill="#1A3966"/>
<path d="M741.1 308.5L733.7 306.2V301.6L741.1 304.1V308.5Z" fill="#03639A"/>
<path d="M740.8 313.1L733.4 311.3L733.6 306.8L740.9 309L740.8 313.1Z" fill="#6388A7"/>
<path d="M741.1 318.2L733.6 317.1L733.7 311.9L741 313.6L741.1 318.2Z" fill="#7592AF"/>
<path d="M731.5 296.8H733.8V301.2H731.4L731.5 296.8Z" fill="url(#paint58_linear_5364_35048)"/>
<path d="M731.325 306.798L731.238 311.397L733.638 311.442L733.724 306.843L731.325 306.798Z" fill="#A1BBCE"/>
<path d="M730.112 311.927L730.025 316.526L733.524 316.592L733.611 311.993L730.112 311.927Z" fill="#7592AF"/>
<path d="M731.4 301.638L731.313 306.237L733.613 306.28L733.699 301.681L731.4 301.638Z" fill="#1A3966"/>
<path d="M731.5 298.8L723.5 296.2L723.6 291.4L731.5 294.5V298.8Z" fill="#EE8522"/>
<path d="M731.4 304L723.4 301.5L723.5 296.6L731.5 299.3L731.4 304Z" fill="#F05D22"/>
<path d="M731.3 308.8L723.3 306.9L723.4 302.1L731.4 304.5L731.3 308.8Z" fill="#EE8522"/>
<path d="M731.4 314.3L723.4 313.1L723.5 307.5L731.3 309.4L731.4 314.3Z" fill="#EE8522"/>
<path d="M721.025 291.466L720.937 296.165L723.536 296.214L723.625 291.515L721.025 291.466Z" fill="#E65724"/>
<path d="M720.686 302.101L720.595 306.9L723.295 306.951L723.385 302.152L720.686 302.101Z" fill="#E65724"/>
<path d="M720.931 296.585L720.839 301.484L723.438 301.533L723.531 296.634L720.931 296.585Z" fill="#E53B25"/>
<path d="M721 293.7L712 290.8L712.1 285.5L721.1 288.9L721 293.7Z" fill="#1A3966"/>
<path d="M720.9 299.4L711.9 296.7L712 291.2L720.9 294.1V299.4Z" fill="#074367"/>
<path d="M720.7 305.1L711.7 302.9L711.9 297.5L720.8 300.2L720.7 305.1Z" fill="#1A3966"/>
<path d="M720.6 307.7L711.7 306.2L711.8 303.6L720.5 305.7L720.6 307.7Z" fill="#074367"/>
<path d="M712 290.7L705.6 290.6L705.7 285.3L712.1 285.4L712 290.7Z" fill="url(#paint59_linear_5364_35048)"/>
<path d="M711.8 303L709.9 302.9L710 297.3L711.9 297.4L711.8 303Z" fill="url(#paint60_linear_5364_35048)"/>
<path d="M711.8 305.5L707.6 305.4V303.3L711.8 303.6V305.5Z" fill="#03639A"/>
<path d="M711.9 296.7L710 296.6L710.1 291.1L712 291.2L711.9 296.7Z" fill="#03639A"/>
<path d="M710.1 294.2L699.9 290.9V284.6L710.2 288.1L710.1 294.2Z" fill="#6388A7"/>
<path d="M710 300.4L699.7 298.1V291.7L710.1 294.8L710 300.4Z" fill="#1A3966"/>
<path d="M709.9 305.4L699.1 304.1L699.6 298.6L710 300.9L709.9 305.4Z" fill="#6388A7"/>
<path d="M699.7 298.1L696.7 297.9V291.5L699.8 291.7L699.7 298.1Z" fill="url(#paint61_linear_5364_35048)"/>
<path d="M699.6 304L694.8 303.9L695.1 298.3L699.6 298.6V304Z" fill="#A1BBCE"/>
<path d="M699.8 290.9L696.8 290.8L696.9 284.4L700 284.6L699.8 290.9Z" fill="#A1BBCE"/>
<path d="M697 283.4L686.7 280.1L686.8 274.1L697.1 278L697 283.4Z" fill="#1A3966"/>
<path d="M696.8 290.1L686.6 286.8V280.5L696.9 284L696.8 290.1Z" fill="#F05D22"/>
<path d="M696.7 296.4L686.4 294.1L686.5 287.8L696.8 290.9L696.7 296.4Z" fill="#1A3966"/>
<path d="M696.7 304L686.4 302.4V294.9L696.7 297.5V304Z" fill="#F05D22"/>
<path d="M686.7 280.1H683.7L683.8 274H686.8L686.7 280.1Z" fill="url(#paint62_linear_5364_35048)"/>
<path d="M686.4 294.1H683.5L683.6 287.7L686.6 287.8L686.4 294.1Z" fill="url(#paint63_linear_5364_35048)"/>
<path d="M686.3 302.1H683.3L683.4 295L686.4 294.9L686.3 302.1Z" fill="#E53B25"/>
<path d="M686.6 286.9L683.6 286.8L683.7 280.6L686.7 280.5L686.6 286.9Z" fill="#E53B25"/>
<path d="M683.7 279.5L673.4 276.1L673.6 270.1L683.8 274L683.7 279.5Z" fill="#F05D22"/>
<path d="M683.6 286.2L673.3 283L673.4 276.6L683.7 280.1L683.6 286.2Z" fill="#1A3966"/>
<path d="M683.5 292.5L673.2 290.2L673.3 283.8L683.6 286.9L683.5 292.5Z" fill="#1A3966"/>
<path d="M683.1 301.1L673.1 299.5L673.2 291.5L683.2 294.1L683.1 301.1Z" fill="#074367"/>
<path d="M673.5 276.1L669.4 276L669.7 270H673.6L673.5 276.1Z" fill="#E53B25"/>
<path d="M673.2 290.1L669.5 290.2L669.4 283.8H673.3L673.2 290.1Z" fill="url(#paint64_linear_5364_35048)"/>
<path d="M673 299.3L668.2 299.2L668.4 291.5H673.2L673 299.3Z" fill="#03639A"/>
<path d="M673.3 283H669.3L669.4 276.6H673.4L673.3 283Z" fill="url(#paint65_linear_5364_35048)"/>
<path d="M603.9 267.7L596.2 268V262.8L604 262.4L603.9 267.7Z" fill="#1A3966"/>
<path d="M603.8 273.6L596.1 274.1V268.4L603.9 268L603.8 273.6Z" fill="#F28820"/>
<path d="M603.7 279.7L595.9 280L596 274.5L603.8 274.1L603.7 279.7Z" fill="#F05D22"/>
<path d="M603.6 285.8L595.7 286.1L595.9 280.6L603.7 280.2L603.6 285.8Z" fill="#1A3966"/>
<path d="M603.5 291.9L595.7 292.1L595.8 286.8L603.6 286.4L603.5 291.9Z" fill="#F05D22"/>
<path d="M603.4 298.1L595.8 298.3V292.7L603.5 292.6L603.4 298.1Z" fill="#F05B24"/>
<path d="M613.3 267.4L604.5 267.7L604.6 262.4L613.4 262L613.3 267.4Z" fill="#F28820"/>
<path d="M613.1 273.2L604.3 273.6L604.5 268L613.2 267.7L613.1 273.2Z" fill="#F05D22"/>
<path d="M613 279.3L604.3 279.6V274.1L613.1 273.8L613 279.3Z" fill="#1A3966"/>
<path d="M612.9 285.4L604.1 285.7L604.2 280.2L613 279.9L612.9 285.4Z" fill="#F05D22"/>
<path d="M612.8 291.6L604.1 291.7L604.2 286.4L612.9 286.1L612.8 291.6Z" fill="#1A3966"/>
<path d="M612.8 297.9L604.3 298L604.2 292.5L612.9 292.3L612.8 297.9Z" fill="#F05B24"/>
<path d="M622.6 266.9L613.8 267.3L613.9 262L622.7 261.7L622.6 266.9Z" fill="#F05D22"/>
<path d="M622.5 272.9L613.7 273.2L613.8 267.7L622.6 267.3L622.5 272.9Z" fill="#1A3966"/>
<path d="M622.4 279L613.5 279.2L613.7 273.8L622.5 273.4L622.4 279Z" fill="#F28820"/>
<path d="M622.2 285.1L613.4 285.4L613.6 279.9L622.4 279.5L622.2 285.1Z" fill="#F05D22"/>
<path d="M622.1 291.3L613.4 291.7V286.1L622.2 285.7L622.1 291.3Z" fill="#F05D22"/>
<path d="M622 297.5L613.5 297.6V292.2L622.1 291.9L622 297.5Z" fill="#F05D22"/>
<path d="M632 266.6L623.1 267L623.2 261.7L632 261.3V266.6Z" fill="#1A3966"/>
<path d="M631.8 272.5L623 272.9L623.1 267.3L631.9 267L631.8 272.5Z" fill="#F05D22"/>
<path d="M631.7 278.6L622.9 278.9L623 273.4L631.8 273.1L631.7 278.6Z" fill="#0B4B7F"/>
<path d="M631.6 284.7L622.8 285L622.9 279.5L631.7 279.1L631.6 284.7Z" fill="#1A3966"/>
<path d="M631.5 290.9L622.7 291.4L622.8 285.7L631.6 285.3L631.5 290.9Z" fill="#F05D22"/>
<path d="M631.4 297.1H622.6L622.7 291.9L631.5 291.5L631.4 297.1Z" fill="#F05D22"/>
<path d="M641.3 266.2L632.5 266.6L632.6 261.3L641.4 260.9L641.3 266.2Z" fill="#F05D22"/>
<path d="M641.1 272.2L632.4 272.5L632.5 267L641.2 266.6L641.1 272.2Z" fill="#F28820"/>
<path d="M641 278.3L632.2 278.6L632.4 273.1L641.1 272.7L641 278.3Z" fill="#F05D22"/>
<path d="M640.9 284.4L632.1 284.6L632.2 279.2L641 278.8L640.9 284.4Z" fill="#1A3966"/>
<path d="M640.8 290.5L632 290.9L632.1 285.2L640.9 284.9L640.8 290.5Z" fill="#F28820"/>
<path d="M640.7 297L631.9 297.1L632 291.4L640.8 291.1L640.7 297Z" fill="#F05D22"/>
<path d="M650.6 265.9L641.8 266.3L641.9 261L650.7 260.6L650.6 265.9Z" fill="#F05D22"/>
<path d="M650.5 271.8L641.6 272.2L641.8 266.6L650.6 266.3L650.5 271.8Z" fill="#0B4B7F"/>
<path d="M650.4 277.9L641.6 278.4L641.7 272.7L650.5 272.4L650.4 277.9Z" fill="#F05D22"/>
<path d="M650.3 284L641.4 284.3L641.6 278.8L650.4 278.4L650.3 284Z" fill="#F28820"/>
<path d="M650.1 290.1L641.3 290.4L641.5 284.9L650.2 284.5L650.1 290.1Z" fill="#F05D22"/>
<path d="M650 296.2L641.2 296.3L641.4 291L650.1 290.6L650 296.2Z" fill="#F05D22"/>
<path d="M659.9 265.5L651.1 265.9L651.2 260.6L660 260.2L659.9 265.5Z" fill="#0B4B7F"/>
<path d="M659.8 271.5L651 271.8L651.1 266.3L659.9 265.9L659.8 271.5Z" fill="#F05D22"/>
<path d="M659.7 277.6L650.9 277.9L651.1 272.4L659.7 272.1V277.6Z" fill="#F05D22"/>
<path d="M659.6 283.6L650.9 283.9V278.4L659.7 278.1L659.6 283.6Z" fill="url(#paint66_linear_5364_35048)"/>
<path d="M659.5 289.7L650.7 290.1L650.8 284.5L659.6 284.2L659.5 289.7Z" fill="url(#paint67_linear_5364_35048)"/>
<path d="M659.4 295.8L650.6 295.9L650.7 290.6L659.5 290.3L659.4 295.8Z" fill="#F05D22"/>
<path d="M749.5 313.3L654.8 301.5L625.8 328.2L741.9 323.6L749.5 313.3Z" fill="url(#paint68_linear_5364_35048)"/>
<path d="M659.1 305.2C659.4 305.8 659.7 306.4 660 306.9C669.6 321.2 682.5 328.2 685.2 329.2C690.6 331.2 690.3 331.6 697 333.3L625.2 335.8C625.2 335.8 628.1 331.6 627.7 327.9C627.3 324.2 654.8 301.5 654.8 301.5L655.3 301.7C656.9 302.3 657.9 303.2 659.1 305.2Z" fill="url(#paint69_linear_5364_35048)"/>
<path d="M749.7 313L741.1 323.7C741.1 323.7 739 326.5 740.3 328.4L740.5 328.9L742 328.6C741.6 327.8 741.8 326.8 742.3 326L749.7 313Z" fill="#152047"/>
<path d="M599.1 320.8C599.1 320.8 600 321.6 601.5 322.5C606.3 325.4 616.4 331.7 614.7 336.2L693.5 333.7L740.9 328.9C740.9 328.9 738.8 327 741.3 323.4H741.2L680.6 325.9L666.1 327.6C661.3 328.2 656.4 328.4 651.6 328.4L628 328.2L599.1 320.8Z" fill="#E96526"/>
<path d="M669.7 269L660 265.5V260.3L669.8 264L669.7 269Z" fill="#E53B25"/>
<path d="M669.6 274.5L659.8 271.4L659.9 265.9L669.7 269.5L669.6 274.5Z" fill="#E53B25"/>
<path d="M669.5 280.8L659.7 277.6V272.1L669.5 275.2V280.8Z" fill="#E53B25"/>
<path d="M669.4 286.7L659.6 283.6L659.7 278.1L669.4 281.5V286.7Z" fill="#1A3966"/>
<path d="M669.5 292.5L659.4 289.7L659.6 284.1L669.4 287.4L669.5 292.5Z" fill="#1A3966"/>
<path d="M669.1 298.6L659.1 296.1L659.4 290.3L669.4 293.1L669.1 298.6Z" fill="#E53B25"/>
<path d="M588.8 300.8L655.7 301.5C655.7 301.5 657.2 330.6 622 328.3C586.8 325.9 588.8 300.8 588.8 300.8Z" fill="url(#paint70_linear_5364_35048)"/>
<path d="M679.5 326.2C679.5 326.2 691.1 332.8 694.6 333.7L650.1 335.2L624.6 336C624.6 336 632.4 328.3 633.3 328.3C635.7 328.3 663.5 328.5 679.5 326.2Z" fill="#D84227"/>
<path d="M741.3 323.5L743.4 324.5C743.4 324.5 742.1 326.4 742 328C742 328 742.1 328.7 742.3 328.8C742.4 328.8 740.7 329.1 740.7 329.1C740.7 329.1 738.8 327 741.3 323.5Z" fill="#D84227"/>
<path d="M655.3 293.5L655.4 301.6L657 301.9L713.7 309.1L749.7 313.3L658.7 293.2L655.3 293.5Z" fill="#17335A"/>
<path d="M655 293.5L655.1 301.6L656.7 301.9L713.4 309.1L749.4 313.3L658.4 293.2L655 293.5Z" fill="url(#paint71_linear_5364_35048)"/>
<path d="M672.2 296.3L671.9 303.8L673.8 304.2L673.9 296.6L672.2 296.3Z" fill="#4A7191"/>
<path d="M680.4 298L680.2 304.9L682 305.3L682.1 298.4L680.4 298Z" fill="#4A7191"/>
<path d="M688.6 299.8L688.4 305.9L690.2 306.2L690.3 300.1L688.6 299.8Z" fill="#4A7191"/>
<path d="M696.8 301.7L696.7 307L698.5 307.3V302L696.8 301.7Z" fill="#4A7191"/>
<path d="M705 303.4V308L706.7 308.3V303.8L705 303.4Z" fill="#4A7191"/>
<path d="M713.2 305.3L713.3 309.1L714.9 309.3V305.6L713.2 305.3Z" fill="#4A7191"/>
<path d="M721.5 307.1V310L723.3 310.2L723.2 307.4L721.5 307.1Z" fill="#4A7191"/>
<path d="M729.7 308.9V311L731.4 311.2V309.3L729.7 308.9Z" fill="#4A7191"/>
<path d="M738 310.7V312L739.7 312.2V311.1L738 310.7Z" fill="#4A7191"/>
<path d="M746.2 312.5V312.9L747.9 313.2V312.9L746.2 312.5Z" fill="#4A7191"/>
<path d="M591.5 300.8L591.6 296.3L588.4 294.4V293.1L659.1 292.8L658.8 295.7L655.7 297L655.6 301.5L591.5 300.8Z" fill="url(#paint72_linear_5364_35048)"/>
<path d="M592.8 301.2V296.6L593.9 295.2H599.2L600.2 296.6V301.2H592.8Z" fill="url(#paint73_linear_5364_35048)"/>
<path d="M601.4 301.3V296.9L602.7 295.2L607.8 295.3L608.8 296.9V301.3H601.4Z" fill="url(#paint74_linear_5364_35048)"/>
<path d="M610.3 301.3V296.9L611.6 295.3H616.7L617.7 297V301.3H610.3Z" fill="url(#paint75_linear_5364_35048)"/>
<path d="M619.2 301.3V297L620.5 295.3H625.6L626.6 297L626.5 301.4L619.2 301.3Z" fill="url(#paint76_linear_5364_35048)"/>
<path d="M628.1 301.4V297L629.399 295.3L634.399 295.4L635.399 297V301.4H628.1Z" fill="url(#paint77_linear_5364_35048)"/>
<path d="M636.899 301.4V297.1L638.199 295.4H643.3L644.3 297.1V301.4H636.899Z" fill="url(#paint78_linear_5364_35048)"/>
<path d="M645.8 301.4V297.1L647.1 295.4H652.2L653.2 297.1V301.5L645.8 301.4Z" fill="url(#paint79_linear_5364_35048)"/>
<path fill-rule="evenodd" clip-rule="evenodd" d="M750.8 329.3C750.9 328.9 750.9 329.2 750.8 328.6L750.699 328.7C750.599 328.9 750.6 329.1 750.5 329.3C750.6 329.3 750.7 329.3 750.8 329.3Z" fill="url(#paint80_linear_5364_35048)"/>
<path fill-rule="evenodd" clip-rule="evenodd" d="M747 327.8C745.9 328.5 746.4 328.7 745.5 329.4C745.9 330.1 745.699 330 746.399 329.9C746.599 330 746.799 330.2 746.899 330.3C746.999 330.2 747.2 330 747.3 329.9C747.2 329 747.5 328.8 747 327.8Z" fill="url(#paint81_linear_5364_35048)"/>
<path fill-rule="evenodd" clip-rule="evenodd" d="M744.1 329.8C744.3 329.6 744.499 329.5 744.699 329.3L744.6 329C744.1 329.5 744.2 329.3 744.1 329.8Z" fill="url(#paint82_linear_5364_35048)"/>
<path fill-rule="evenodd" clip-rule="evenodd" d="M739 331.8C740.1 331 742.1 330.5 742.5 329.3C742.5 329.1 742.5 328.9 742.6 328.8L742.5 328.7C741.5 328.8 741.299 328.1 740.399 328.2C740.299 328.3 740.299 328.4 740.199 328.5C740.599 329.2 740.899 329.4 740.699 330.1L739.899 330.5C738.899 329.5 738.2 330.3 737.3 329.6C737.4 329.5 737.2 329.1 737.1 328.6C735.1 329.2 733 330.1 731.1 329.8C730.1 329.6 729.499 328.9 728.399 329.1C728.299 329.7 728 330.5 727.8 331.1L727.3 331.4C726.3 330.4 718.699 329.4 716.699 330.3C716.799 331.2 716.399 331.8 716.399 332.6L716.5 332.7C717.2 332.4 717.9 332.1 718.5 331.8C719 332.3 719.399 332.7 719.899 333.2C721.199 332.9 721.899 333.2 722.899 333.3C723.699 333.3 727.9 331.5 729 331.7C729.4 332 729.8 332.2 730.3 332.5C733.4 330.9 736.6 330.2 739 331.8Z" fill="url(#paint83_linear_5364_35048)"/>
<path fill-rule="evenodd" clip-rule="evenodd" d="M710.3 333.7C710.9 333.2 711.499 332.7 712.199 332.2C711.999 331.6 711.8 331 711.6 330.4C710.7 330.2 709.999 329.6 708.899 330C708.199 331.1 707.699 331.5 706.899 332.2L707 332.5C707.7 332.2 707.699 332.2 708.199 332.5C708.099 332.6 707.999 332.7 707.899 332.8C708.199 333 708.599 333.2 708.899 333.4C709.299 333.5 709.8 333.6 710.3 333.7Z" fill="url(#paint84_linear_5364_35048)"/>
<path fill-rule="evenodd" clip-rule="evenodd" d="M714.399 330.8L716.1 329.9L715.899 329.5C715.299 329.9 714.499 330.3 714.399 330.8Z" fill="url(#paint85_linear_5364_35048)"/>
<path fill-rule="evenodd" clip-rule="evenodd" d="M705.899 333.7C705.899 333.3 705.899 332.8 705.899 332.4C704.099 332.3 702.899 330.4 700.999 330.3C700.299 331.1 699.999 331.9 698.899 332.7C699.099 332.9 699.299 333 699.499 333.2C699.199 333.4 698.899 333.6 698.699 333.8L698.999 334.3L699.099 334.2C699.399 333.7 699.199 333.7 699.699 333.2C701.599 335.1 703.699 333.4 705.899 333.7Z" fill="url(#paint86_linear_5364_35048)"/>
<path fill-rule="evenodd" clip-rule="evenodd" d="M695.399 335.2C696.999 334.2 696.8 333.1 697.3 331.9C696.9 331.5 696.5 331.1 696 331.1C695 330.8 692.3 332.2 691.5 332.6C690.6 331.4 690.1 331.8 689.1 332.1C689.9 333.8 690.999 333.4 692.199 334.3C692.099 335 691.899 335 692.199 335.6C693.199 335.5 694.499 334.9 695.399 335.2Z" fill="url(#paint87_linear_5364_35048)"/>
<path fill-rule="evenodd" clip-rule="evenodd" d="M687.399 336.4C688.299 335.8 688.6 334.9 689.1 334C688.6 333.7 688.6 333.6 688.5 333L688.199 332.7C687.299 333.5 687.7 334.1 686.5 334.9C686 334.6 685.9 334.7 685.3 334.7C683.9 331.7 682.599 332.9 680.699 333.6C680.099 333 679.5 332.5 678.8 331.9C678.2 332.5 677.6 333 677.5 333.8C678.2 334.3 678.5 334.3 678.8 335.3C678.3 335.7 677.699 335.9 677.399 336.4L678 337.4C678.6 337.2 679.299 337.1 679.899 336.9C680.199 335.8 680 335.1 681 334.2L681.399 335C681.499 335.6 681.499 335.6 681.199 336.1C681.899 336.5 682.8 337.2 683.5 337.6C684.2 336.7 684.099 336 685.199 335.2C685.399 335.2 685.699 335.3 685.899 335.3C686.199 336 685.899 336 686.399 336.2C686.799 336.5 686.499 336.4 686.899 336.4C686.999 336.4 687.199 336.4 687.399 336.4Z" fill="url(#paint88_linear_5364_35048)"/>
<path fill-rule="evenodd" clip-rule="evenodd" d="M654.3 333.9C652.1 334.9 649.6 334 647.8 334.8C647.5 334.1 647.9 333.9 647.5 333.9C646.8 333.7 645.699 333.9 644.899 334.1C645.099 335.1 644.499 335.5 644.399 336.3C644.699 337.7 645 339.2 645.3 340.6C645.6 340.7 645.899 340.7 646.199 340.8C646.599 340.4 646.999 340.4 647.199 339.9C647.799 338.8 647.299 338.2 648.699 337.3C649.099 337.9 649.6 338.8 649.6 338.8C651.4 339 653.8 337.4 655.1 336.6L655.399 337.2C655.399 337.8 655.599 338.3 655.899 338.8C656.299 339 656.7 339.3 657.1 339.5C659.1 338.6 660.1 337.8 661.8 338L661.199 337C662.399 336.8 663.6 336.5 664.8 336.3C664.9 336.8 665.099 337.3 665.199 337.7C665.599 337.2 665.999 336.7 666.399 336.2C667.799 337.4 669.5 335.9 670.8 337.6C671.7 337 673.599 336.5 674.699 336.5C674.699 336.1 674.699 335.7 674.699 335.3C674.199 335.1 673.5 334.3 673 334.2C672.2 334.1 671.6 334.8 670.8 334.5C669.9 334.2 669.599 333.4 668.699 333.3C668.099 333.9 667.799 334.2 666.899 334.6C666.299 334 666 334.2 665.3 334.3C664.8 333.3 664.799 333.5 664.199 332.9C661.399 333.8 659.7 334.7 657.1 336.1C656.3 335.6 655.2 335.4 654.3 333.9Z" fill="url(#paint89_linear_5364_35048)"/>
<path fill-rule="evenodd" clip-rule="evenodd" d="M641.199 339.7C642.199 339.1 642.999 339.1 642.699 337.8C641.799 337.7 642.199 337.4 641.699 336.8L639.8 337.3C638.7 335.5 636.4 333.7 634.3 334.5C633.3 336 632.699 336.4 630.899 336.3C629.999 337.2 629.099 338.6 628.899 339.8C631.299 341.8 633.4 340.2 636.3 340C636.5 340.8 636.2 340.7 636.5 341.6L636.8 341.5C638.1 341.2 638.4 339.5 639.8 338.6C640 338.7 640.1 338.8 640.3 338.8C640.6 339.1 640.899 339.4 641.199 339.7Z" fill="url(#paint90_linear_5364_35048)"/>
<path fill-rule="evenodd" clip-rule="evenodd" d="M622.499 342.7C623.399 342.1 625.499 340.2 625.499 339.5C625.699 339 625.599 338.7 625.199 338C625.499 337.9 625.799 337.8 626.199 337.6C625.599 336.8 625.699 337 625.399 336C624.299 336.1 619.499 336.7 618.599 337.3C617.899 337.8 617.999 338.5 616.899 339.2C616.499 339.1 616.299 339.1 615.899 338.9C615.799 338.8 615.699 338.7 615.599 338.6C615.999 338 616.199 337.3 615.999 336.6C615.599 336.6 615.199 336.5 614.799 336.4C614.599 337.1 614.399 337.8 614.199 338.5C614.999 339.9 614.899 339.9 615.499 341.3L622.499 342.7Z" fill="url(#paint91_linear_5364_35048)"/>
<path fill-rule="evenodd" clip-rule="evenodd" d="M608.899 337.9C609.499 339 610 340.1 610.6 341.1C611.1 340.5 611.7 340.6 612.1 339.8C613.2 338.1 612.099 336.7 610.399 336.6C609.899 337.1 609.399 337.5 608.899 337.9Z" fill="url(#paint92_linear_5364_35048)"/>
<path d="M2381.7 353.3H-1440V469.4H2381.7V353.3Z" fill="url(#paint93_linear_5364_35048)"/>
<path d="M7.70007 462.7L6.6001 462.3L286.9 360.1L288 360.5L7.70007 462.7Z" fill="url(#paint94_linear_5364_35048)"/>
<path d="M215 351.5L70.8999 375L208.6 411.4L511.7 362.8L498.8 355.3L215 351.5Z" fill="url(#paint95_linear_5364_35048)"/>
<path d="M462.199 278.4L485.399 278.5L497.299 304.6L513.999 318.2L518.699 330.2V347.2L404.899 341.2L462.199 278.4Z" fill="#0C0D0D"/>
<path d="M518.799 305.8L522.099 315.3C522.399 316.2 522.599 317.2 522.599 318.2L522.499 347.2H518.699V330.2C518.699 330.2 516.799 323.7 511.599 323.9H500.699L500.799 305.8H518.799Z" fill="#14233A"/>
<path d="M521.599 267.4H525C525.9 267.4 526.5 268.1 526.5 269V277.7C526.5 278.6 525.8 279.2 524.9 279.2H521.5C520.6 279.2 520 278.5 520 277.6V268.9C520.1 268 520.699 267.4 521.599 267.4Z" fill="url(#paint96_linear_5364_35048)"/>
<path d="M525.2 279.7H521.2C520.3 279.7 519.6 278.9 519.6 278.1V268.8C519.6 267.9 520.3 267.2 521.2 267.2H525.2C526.1 267.2 526.8 268 526.8 268.8V278.1C526.9 279 526.1 279.7 525.2 279.7ZM521.3 267.9C520.8 267.9 520.5 268.3 520.5 268.7V278C520.5 278.5 520.9 278.8 521.3 278.8H525.3C525.8 278.8 526.1 278.4 526.1 278V268.7C526.1 268.2 525.7 267.9 525.3 267.9H521.3Z" fill="#14233A"/>
<path d="M521.599 281.2H525C525.9 281.2 526.5 281.9 526.5 282.8V285.6C526.5 286.5 525.8 287.1 524.9 287.1H521.5C520.6 287.1 520 286.4 520 285.5V282.7C520 281.9 520.699 281.2 521.599 281.2Z" fill="url(#paint97_linear_5364_35048)"/>
<path d="M525.2 287.6H521.2C520.3 287.6 519.6 286.8 519.6 286V282.6C519.6 281.7 520.4 281 521.3 281H525.3C526.2 281 526.9 281.8 526.9 282.6V286C526.8 286.9 526.1 287.6 525.2 287.6ZM521.2 281.7C520.7 281.7 520.4 282.1 520.4 282.5V285.9C520.4 286.4 520.8 286.7 521.2 286.7H525.2C525.7 286.7 526 286.3 526 285.9V282.5C526 282 525.6 281.7 525.2 281.7H521.2Z" fill="#14233A"/>
<path d="M511.399 293.3V292.5C513.199 292.5 514.599 291.1 514.599 289.3V280.4C514.599 279.5 514.899 278.7 515.399 278L519.599 272.3L520.199 272.8L515.999 278.5C515.599 279 515.399 279.7 515.399 280.4V289.3C515.399 291.5 513.599 293.3 511.399 293.3Z" fill="#14233A"/>
<path d="M514.905 283.879L514.903 284.679L519.803 284.691L519.805 283.891L514.905 283.879Z" fill="#14233A"/>
<path d="M494.399 234.8L453.199 234.7L448.899 290.4L469.499 304.6L497.399 304.7L497.599 235.4C496.499 235 495.499 234.8 494.399 234.8Z" fill="url(#paint98_linear_5364_35048)"/>
<path d="M513.999 318.2L497.299 318.1V324.1L519.099 324.2V323.2L513.999 318.2Z" fill="#14233A"/>
<path d="M509.8 282.8L516.4 290.5L516.5 268.6C516.5 265.9 515.8 263.3 514.5 261L509.3 251.9L507 247.6V275C507 277.9 508 280.7 509.8 282.8Z" fill="#14233A"/>
<path d="M516.499 290.6L509.899 282.9C507.999 280.7 506.999 278 506.999 275.1L507.099 247.7L502.999 239.9C501.799 237.7 499.899 236.1 497.599 235.3L497.399 304.6V318.1H514.099L519.199 323.1L519.299 299C519.299 297.9 519.099 296.8 518.699 295.8L516.499 290.6Z" fill="#F9B6A1"/>
<path d="M495.7 342.8L520.5 342.9C520.5 342.9 521.7 328.9 510.1 325.6L495.7 342.8Z" fill="url(#paint99_linear_5364_35048)"/>
<path d="M500.067 345.688C500.09 336.299 496.482 328.679 492.009 328.668C487.535 328.657 483.89 336.259 483.867 345.648C483.844 355.037 487.452 362.657 491.926 362.668C496.399 362.679 500.044 355.077 500.067 345.688Z" fill="#0C0D0D"/>
<path d="M491.399 328.7L511.299 328.8L511.699 362.8H492.099L491.399 328.7Z" fill="#0C0D0D"/>
<path d="M519.695 345.816C519.718 336.427 516.11 328.807 511.636 328.796C507.163 328.785 503.518 336.387 503.495 345.776C503.472 355.165 507.08 362.785 511.553 362.796C516.027 362.807 519.672 355.205 519.695 345.816Z" fill="#14233A"/>
<path d="M515.896 345.807C515.907 341.278 514.125 337.602 511.916 337.597C509.706 337.591 507.907 341.258 507.896 345.787C507.884 350.316 509.666 353.991 511.875 353.997C514.085 354.002 515.884 350.335 515.896 345.807Z" fill="#0C0D0D"/>
<path d="M492.9 325.8L510.1 324.1L504 335.7L503.3 344.4L482.2 343.8L485.5 331.9C486.5 328.6 489.4 326.1 492.9 325.8Z" fill="url(#paint100_linear_5364_35048)"/>
<path d="M521.2 343.5C521 340.1 520.4 336.7 519.3 333.5C518 329.7 516 325.4 513.5 324.4C509.1 322.6 506.1 324.9 503.7 332.4C503.5 333.2 503.2 334 503.1 334.8C502.6 337.1 501.6 342.2 501.7 344.3H503.9C503.9 344.3 504.9 329.7 510.5 327.4C516.1 325.1 520.6 335.5 520.5 343.3L521.2 343.5Z" fill="#FCE0D5"/>
<path d="M487.8 307.6L301.6 272.8L294.8 290L470.8 344L487.8 307.6Z" fill="#0C0D0D"/>
<path d="M396.4 318.1L425.3 324.4L424.3 347L396.3 342.9L396.4 318.1Z" fill="#194A81"/>
<path d="M403.4 329.8C403.4 337.2 400.4 343.1 396.7 343.1C393 343.1 384.8 330.6 384.8 323.3C384.8 316 392.7 314.7 396.3 314.7C399.9 314.7 403.4 322.4 403.4 329.8Z" fill="#1B3B62"/>
<path d="M443.899 324.2L465.999 324.3L466.399 363.8L444.699 363.7L443.899 324.2Z" fill="#0C0D0D"/>
<path d="M475.299 344C475.299 354.9 471.199 363.7 466.199 363.7C461.199 363.7 457.199 354.8 457.199 343.9C457.199 333 461.299 323.9 466.299 323.9C471.299 323.9 475.299 333.1 475.299 344Z" fill="#14233A"/>
<path d="M470.689 343.972C470.702 338.67 468.742 334.367 466.312 334.361C463.882 334.355 461.902 338.648 461.889 343.95C461.876 349.252 463.835 353.555 466.265 353.561C468.695 353.567 470.676 349.274 470.689 343.972Z" fill="#0C0D0D"/>
<path d="M448.2 318.4L465.5 317.6L460 324.2L457.9 333.5L455.5 333.8L451.5 323.3L448.2 318.4Z" fill="url(#paint101_linear_5364_35048)"/>
<path d="M426.843 341.208C426.874 328.45 421.974 318.096 415.899 318.081C409.824 318.066 404.874 328.396 404.843 341.154C404.811 353.912 409.711 364.266 415.786 364.281C421.861 364.296 426.811 353.965 426.843 341.208Z" fill="#0C0D0D"/>
<path d="M415 318.1L442 318.2L442.5 364.4L415.9 364.3L415 318.1Z" fill="#0C0D0D"/>
<path d="M453.317 341.222C453.348 328.465 448.449 318.11 442.374 318.096C436.298 318.081 431.348 328.411 431.317 341.169C431.286 353.926 436.186 364.281 442.261 364.295C448.336 364.31 453.286 353.98 453.317 341.222Z" fill="#14233A"/>
<path d="M448.128 341.22C448.143 335.034 445.738 330.014 442.756 330.007C439.773 329.999 437.343 335.008 437.328 341.193C437.313 347.379 439.718 352.399 442.701 352.407C445.683 352.414 448.113 347.405 448.128 341.22Z" fill="#0C0D0D"/>
<path d="M417 314.2L440.3 312L432.1 327.7L431.2 339.5L402.6 338.6L407.1 322.5C408.4 317.9 412.3 314.6 417 314.2Z" fill="url(#paint102_linear_5364_35048)"/>
<path d="M431.9 339.4C431.9 339.4 433.3 319.6 440.8 316.5C448.3 313.4 454.5 327.4 454.4 338.1L457.7 338.3C457.7 338.3 458.7 322.4 465 321.5C471.3 320.6 472.4 328.6 473 329.8C474.3 332.8 475.2 341.5 475.2 341.5H476.3C476.3 341.5 475.3 315.3 464.7 317.6C464.7 317.6 458.9 317.8 457.1 329.5L456.8 332.7L455.2 332.6C455.2 332.6 451.1 314.7 445 312.2C438.9 309.7 435 312.9 431.8 323.1C431.5 324.2 431.2 325.3 430.9 326.4C430.3 329.5 428.9 336.5 429 339.3L431.9 339.4Z" fill="#FCE0D5"/>
<path d="M339.5 304.8L377.699 304.9L378.4 373.2L340.8 373.1L339.5 304.8Z" fill="#0C0D0D"/>
<path d="M393.8 339C393.7 357.9 386.7 373.1 378.1 373.1C369.5 373.1 362.5 357.8 362.6 338.9C362.7 320 369.7 304.3 378.3 304.3C386.9 304.3 393.8 320.2 393.8 339Z" fill="#14233A"/>
<path d="M385.926 339.012C385.949 329.844 382.564 322.404 378.367 322.394C374.169 322.383 370.749 329.807 370.726 338.975C370.704 348.143 374.088 355.584 378.286 355.594C382.483 355.604 385.904 348.18 385.926 339.012Z" fill="#0C0D0D"/>
<path d="M347 294.6L376.8 293.2L367.3 304.8L363.699 320.8L359.5 321.4L352.699 303.1L347 294.6Z" fill="url(#paint103_linear_5364_35048)"/>
<path d="M310.125 334.155C310.179 312.119 301.671 294.234 291.123 294.209C280.574 294.183 271.979 312.026 271.925 334.062C271.871 356.098 280.379 373.983 290.928 374.009C301.476 374.034 310.071 356.191 310.125 334.155Z" fill="#0C0D0D"/>
<path d="M289.4 294.2L336.2 294.3L337 374.2L291.1 374.1L289.4 294.2Z" fill="#0C0D0D"/>
<path d="M356.037 334.288C356.091 312.252 347.583 294.367 337.034 294.341C326.486 294.315 317.891 312.158 317.837 334.195C317.783 356.231 326.291 374.115 336.839 374.141C347.388 374.167 355.983 356.324 356.037 334.288Z" fill="#14233A"/>
<path d="M346.839 334.185C346.865 323.471 342.767 314.775 337.686 314.763C332.605 314.75 328.465 323.426 328.439 334.14C328.413 344.855 332.511 353.55 337.592 353.563C342.673 353.575 346.813 344.899 346.839 334.185Z" fill="#0C0D0D"/>
<path d="M225.4 332.755C225.454 310.719 218.558 292.838 209.998 292.817C201.437 292.796 194.454 310.643 194.4 332.679C194.346 354.715 201.242 372.596 209.803 372.617C218.363 372.638 225.346 354.791 225.4 332.755Z" fill="#0C0D0D"/>
<path d="M208.6 292.8L246.5 292.9L247.1 372.8L209.9 372.7L208.6 292.8Z" fill="#0C0D0D"/>
<path d="M262.631 332.866C262.685 310.83 255.789 292.949 247.228 292.928C238.668 292.907 231.685 310.754 231.631 332.79C231.577 354.826 238.473 372.707 247.033 372.728C255.594 372.749 262.577 354.902 262.631 332.866Z" fill="#14233A"/>
<path d="M254.631 332.847C254.657 322.132 251.32 313.438 247.178 313.428C243.036 313.418 239.657 322.096 239.631 332.81C239.605 343.524 242.941 352.218 247.083 352.228C251.226 352.238 254.605 343.561 254.631 332.847Z" fill="#0C0D0D"/>
<path d="M301.6 272.8L174.2 286.1L175.9 164.4L300.4 125.1L301.6 272.8Z" fill="#FBD2C3"/>
<path d="M279.5 288.7L333.2 283.5L319 310.6L317.5 331L275.7 329.6L279.5 288.7Z" fill="url(#paint104_linear_5364_35048)"/>
<path d="M294.8 265.9L181.8 277.7L183.6 170.7L292.6 136.8L294.8 265.9Z" fill="#EA917D"/>
<path d="M300.399 125.1L475.599 199.7L476.299 313.3L301.599 272.8L300.399 125.1Z" fill="#F9B6A1"/>
<path d="M183.5 170.8L294 217.4V134.1L181.1 169.7L183.5 170.8Z" fill="#0C0D0D"/>
<path d="M182.7 286.2L182.6 340.6C182.6 344.2 184.1 347.1 185.9 347L293.9 341.5C302.3 339.8 303.8 332.1 303.6 321.2L301.5 272.8L182.7 286.2Z" fill="#FCE0D5"/>
<path d="M276.9 321L281 320.8C283.7 320.7 286 322.8 286.2 325.5C286.3 328.2 284.2 330.5 281.5 330.7L277.4 330.9C274.7 331 272.4 328.9 272.2 326.2C272.1 323.4 274.1 321.1 276.9 321Z" fill="#F26F50"/>
<path d="M195.6 323.4L201.5 323.1C203.7 323 205.6 324.7 205.7 326.9L205.8 328.6C205.9 330.8 204.2 332.7 202 332.8L196.1 333.1C193.9 333.2 192 331.5 191.9 329.3L191.8 327.6C191.7 325.4 193.4 323.5 195.6 323.4Z" fill="#F26F50"/>
<path d="M181.099 169.7L293.999 217.4L294.899 267.6C294.899 267.6 178.1 279.6 178.8 279.8C179.5 280 181.099 169.7 181.099 169.7Z" fill="#14233A"/>
<path d="M301.6 272.8L294.9 289.7C294 292 293.5 294.6 293.6 297.1L294.1 309.9L169 320.2L168.1 304.7C168.1 304.6 168.1 304.4 168.2 304.3L174.6 286.2L301.6 272.8Z" fill="#F9B6A1"/>
<path d="M318.7 331C318.7 331 321.1 296.8 334.1 291.4C347.1 286 357.7 310.3 357.6 328.8L363.4 329.1C363.4 329.1 365.2 301.6 376 300.1C386.8 298.6 388.8 312.4 389.8 314.4C392.1 319.6 393.6 334.7 393.6 334.7H395.5C395.5 334.7 393.7 289.3 375.4 293.4C375.4 293.4 365.5 293.7 362.3 314L361.8 319.5L359 319.3C359 319.3 351.9 288.2 341.3 284.1C330.9 280 324 285.3 318.4 302.9C317.8 304.8 317.3 306.7 316.9 308.6C315.8 314 313.5 326 313.6 331H318.7Z" fill="#FCE0D5"/>
<path d="M258.7 151.3L285.4 168.1L285.5 187.8L286.1 194.1L257.8 193.4L258.7 151.3Z" fill="url(#paint105_linear_5364_35048)"/>
<path d="M300.5 132.3L294 134.1V127.1L300.4 125.1L300.5 132.3Z" fill="#EE8464"/>
<path d="M181.1 169.8L175.8 171.4L175.9 164.4L181.2 162.8L181.1 169.8Z" fill="#EE8464"/>
<path d="M294.699 265.9L257.8 269.8L255.5 229.9L294.099 224.9L294.699 265.9Z" fill="#DEBA86"/>
<path d="M258.6 269.7L220.1 273.7L221.1 232.2L257.1 229.3L258.6 269.7Z" fill="#D3A56A"/>
<path d="M241.2 247.6L235.2 248.6L235.3 234.5L241.2 233.7V247.6Z" fill="white"/>
<path d="M220.3 273.7L181.8 277.7L182.4 240.1L220.4 235.2L220.3 273.7Z" fill="#DEBA86"/>
<path d="M201.799 253.4L195.899 254.2L196.199 240.1L202.199 239.4L201.799 253.4Z" fill="white"/>
<path d="M277.8 241.9L271.8 242.9L271.9 228.8L277.8 227.9V241.9Z" fill="white"/>
<path d="M294.099 224.9L257 231L257.099 192.9L294 185L294.099 224.9Z" fill="#C09A67"/>
<path d="M257.2 230.7L220.9 235.9L220.6 199.5L257.1 192.9L257.2 230.7Z" fill="#DEBA86"/>
<path d="M242.1 209.8L236.1 210.8L236.2 196.7L242.1 195.6V209.8Z" fill="white"/>
<path d="M220.199 236.2L182.399 240.9L183.099 205.5L220.999 199.4L220.199 236.2Z" fill="#F2D3AA"/>
<path d="M202.4 216.3L196.6 217.2L197 203.2L202.7 202.4L202.4 216.3Z" fill="white"/>
<path d="M277 202.8L271.1 203.8V189.9L277.1 188.6L277 202.8Z" fill="white"/>
<path d="M257.8 192.7L221.1 199.4L221.7 162.6L258.7 151.3V158L257.8 192.7Z" fill="#DEBA86"/>
<path d="M242.899 224.2L253.499 223.1L254.099 228.2L243.499 229.3L242.899 224.2Z" fill="url(#paint106_linear_5364_35048)"/>
<path d="M233.717 224.577L224.17 225.596L224.234 226.192L233.78 225.174L233.717 224.577Z" fill="#282827"/>
<path d="M229.224 226.328L224.252 226.858L224.316 227.455L229.288 226.924L229.224 226.328Z" fill="#282827"/>
<path d="M227.13 227.851L224.346 228.148L224.409 228.745L227.194 228.448L227.13 227.851Z" fill="#282827"/>
<path d="M233.838 227.224L230.557 227.574L230.62 228.171L233.902 227.821L233.838 227.224Z" fill="#282827"/>
<path d="M245.005 224.883L244.707 224.915L245.036 227.998L245.334 227.966L245.005 224.883Z" fill="#282827"/>
<path d="M248.249 224.58L247.95 224.612L248.205 226.998L248.503 226.966L248.249 224.58Z" fill="#282827"/>
<path d="M245.65 224.882L245.352 224.914L245.607 227.301L245.905 227.269L245.65 224.882Z" fill="#282827"/>
<path d="M246.247 224.786L245.949 224.818L246.203 227.205L246.502 227.173L246.247 224.786Z" fill="#282827"/>
<path d="M246.943 224.681L246.645 224.713L246.9 227.1L247.198 227.068L246.943 224.681Z" fill="#282827"/>
<path d="M247.551 224.686L247.253 224.718L247.508 227.104L247.806 227.073L247.551 224.686Z" fill="#282827"/>
<path d="M248.845 224.485L248.547 224.517L248.802 226.903L249.1 226.872L248.845 224.485Z" fill="#282827"/>
<path d="M249.442 224.389L249.144 224.421L249.398 226.808L249.697 226.776L249.442 224.389Z" fill="#282827"/>
<path d="M250.148 224.384L249.85 224.416L250.104 226.802L250.402 226.77L250.148 224.384Z" fill="#282827"/>
<path d="M250.745 224.289L250.447 224.321L250.701 226.707L251 226.676L250.745 224.289Z" fill="#282827"/>
<path d="M251.452 224.282L251.153 224.314L251.408 226.701L251.706 226.669L251.452 224.282Z" fill="#282827"/>
<path d="M252.111 224.184L251.812 224.216L252.141 227.299L252.44 227.267L252.111 224.184Z" fill="#282827"/>
<path d="M244.5 184.7L255.1 183.5L255.6 188.6L245 189.8L244.5 184.7Z" fill="url(#paint107_linear_5364_35048)"/>
<path d="M235.218 185.08L225.671 186.098L225.735 186.695L235.281 185.676L235.218 185.08Z" fill="#282827"/>
<path d="M230.826 186.819L225.854 187.35L225.918 187.946L230.89 187.416L230.826 186.819Z" fill="#282827"/>
<path d="M228.732 188.344L225.947 188.641L226.011 189.238L228.795 188.941L228.732 188.344Z" fill="#282827"/>
<path d="M235.429 187.618L232.147 187.968L232.211 188.564L235.492 188.214L235.429 187.618Z" fill="#282827"/>
<path d="M246.506 185.386L246.208 185.418L246.537 188.5L246.835 188.468L246.506 185.386Z" fill="#282827"/>
<path d="M249.749 185.083L249.45 185.115L249.705 187.502L250.003 187.47L249.749 185.083Z" fill="#282827"/>
<path d="M247.142 185.285L246.843 185.317L247.098 187.703L247.396 187.672L247.142 185.285Z" fill="#282827"/>
<path d="M247.849 185.279L247.55 185.311L247.805 187.698L248.103 187.666L247.849 185.279Z" fill="#282827"/>
<path d="M248.445 185.185L248.147 185.216L248.402 187.603L248.7 187.571L248.445 185.185Z" fill="#282827"/>
<path d="M249.151 185.178L248.853 185.21L249.108 187.596L249.406 187.564L249.151 185.178Z" fill="#282827"/>
<path d="M250.446 184.978L250.147 185.01L250.402 187.396L250.7 187.364L250.446 184.978Z" fill="#282827"/>
<path d="M251.042 184.882L250.744 184.914L250.999 187.301L251.297 187.269L251.042 184.882Z" fill="#282827"/>
<path d="M251.65 184.887L251.352 184.919L251.606 187.305L251.904 187.274L251.65 184.887Z" fill="#282827"/>
<path d="M252.346 184.781L252.048 184.813L252.302 187.199L252.601 187.167L252.346 184.781Z" fill="#282827"/>
<path d="M252.943 184.686L252.645 184.718L252.9 187.104L253.198 187.073L252.943 184.686Z" fill="#282827"/>
<path d="M253.613 184.687L253.315 184.719L253.644 187.802L253.942 187.77L253.613 184.687Z" fill="#282827"/>
<path d="M240.3 171.7L234.6 172.6L234.9 158.6L240.7 156.8L240.3 171.7Z" fill="white"/>
<path d="M220.2 273.7L220.9 273.6L221.1 199.4L220.5 199.5L220.2 273.7Z" fill="white"/>
<path d="M257.6 269.8L258.3 269.7L258.5 192.5L257.8 192.6L257.6 269.8Z" fill="white"/>
<path d="M294.099 225.2L182.399 241.7V242.3L294.099 225.9V225.2Z" fill="white"/>
<path d="M220.5 199.1V199.6L258.099 193.1L258 192.6" fill="white"/>
<path d="M475.8 205.6L303.3 132.3L303.4 134.7L475.8 208.1V205.6Z" fill="url(#paint108_linear_5364_35048)"/>
<path d="M475.599 304.5L302.899 261.2L303.099 263.6L475.599 307V304.5Z" fill="url(#paint109_linear_5364_35048)"/>
<path d="M457 238.1L430.9 225V235.9L447.1 244.1V276.8L430.8 270.4V280.9L456.8 291.2L457 238.1Z" fill="url(#paint110_linear_5364_35048)"/>
<path d="M329.6 230.3V213.6H319.8L319.7 237L342.3 245.9L342.1 235.3L329.6 230.3Z" fill="url(#paint111_linear_5364_35048)"/>
<path d="M319.9 169.1L319.8 200.8L329.6 200.9L329.7 185L340.9 190.6L340.6 179.5L319.9 169.1Z" fill="url(#paint112_linear_5364_35048)"/>
<path d="M371.2 246.8L360.4 242.5V253.1L397.1 267.6V257L381.1 250.7L381.2 210.9L395.6 218.2L395.4 207.1L361 189.8V200.7L371.3 205.9L371.2 246.8Z" fill="url(#paint113_linear_5364_35048)"/>
<path d="M613.5 341.7H606.5V353.9H613.5V341.7Z" fill="url(#paint114_linear_5364_35048)"/>
<path d="M617.7 341.7H613.5V353.9H617.7V341.7Z" fill="url(#paint115_linear_5364_35048)"/>
<path d="M546.2 341.7H539.2V353.9H546.2V341.7Z" fill="url(#paint116_linear_5364_35048)"/>
<path d="M550.4 341.7H546.2V353.9H550.4V341.7Z" fill="url(#paint117_linear_5364_35048)"/>
<path d="M169.5 341.7H162.5V353.9H169.5V341.7Z" fill="url(#paint118_linear_5364_35048)"/>
<path d="M173.7 341.7H169.5V353.9H173.7V341.7Z" fill="url(#paint119_linear_5364_35048)"/>
<path d="M93.2998 341.7H86.2998V353.9H93.2998V341.7Z" fill="url(#paint120_linear_5364_35048)"/>
<path d="M97.4998 341.7H93.2998V353.9H97.4998V341.7Z" fill="url(#paint121_linear_5364_35048)"/>
<path d="M684 341.7H677V353.9H684V341.7Z" fill="url(#paint122_linear_5364_35048)"/>
<path d="M688.2 341.7H684V353.9H688.2V341.7Z" fill="url(#paint123_linear_5364_35048)"/>
<path d="M754.5 341.7H747.5V353.9H754.5V341.7Z" fill="url(#paint124_linear_5364_35048)"/>
<path d="M758.7 341.7H754.5V353.9H758.7V341.7Z" fill="url(#paint125_linear_5364_35048)"/>
<path d="M825 341.7H818V353.9H825V341.7Z" fill="url(#paint126_linear_5364_35048)"/>
<path d="M829.2 341.7H825V353.9H829.2V341.7Z" fill="url(#paint127_linear_5364_35048)"/>
<path d="M895.4 341.7H888.4V353.9H895.4V341.7Z" fill="url(#paint128_linear_5364_35048)"/>
<path d="M899.6 341.7H895.4V353.9H899.6V341.7Z" fill="url(#paint129_linear_5364_35048)"/>
</g>
</g>
<defs>
<linearGradient id="paint0_linear_5364_35048" x1="557.95" y1="66.4721" x2="248.49" y2="168.112" gradientUnits="userSpaceOnUse">
<stop stop-color="#B5E1F5"/>
<stop offset="1" stop-color="#C3E8F7" stop-opacity="0"/>
</linearGradient>
<linearGradient id="paint1_linear_5364_35048" x1="480.189" y1="108.43" x2="466.219" y2="108.43" gradientUnits="userSpaceOnUse">
<stop stop-color="#F4B8AB"/>
<stop offset="1" stop-color="#FCE0D5"/>
</linearGradient>
<linearGradient id="paint2_linear_5364_35048" x1="480.309" y1="98.5813" x2="453.199" y2="74.4913" gradientUnits="userSpaceOnUse">
<stop stop-color="#F4B8AB"/>
<stop offset="1" stop-color="#FCE0D5"/>
</linearGradient>
<linearGradient id="paint3_linear_5364_35048" x1="563.899" y1="97.335" x2="538.289" y2="97.335" gradientUnits="userSpaceOnUse">
<stop stop-color="#393342"/>
<stop offset="1" stop-color="#0C0D0D"/>
</linearGradient>
<linearGradient id="paint4_linear_5364_35048" x1="533.872" y1="62.5414" x2="528.631" y2="108.531" gradientUnits="userSpaceOnUse">
<stop stop-color="#FFCDC0"/>
<stop offset="1" stop-color="#14233A"/>
</linearGradient>
<linearGradient id="paint5_linear_5364_35048" x1="476.93" y1="96.9529" x2="439.21" y2="96.9529" gradientUnits="userSpaceOnUse">
<stop stop-color="#EE8464"/>
<stop offset="1" stop-color="#FCE0D5"/>
</linearGradient>
<linearGradient id="paint6_linear_5364_35048" x1="458.096" y1="91.5901" x2="457.165" y2="132.88" gradientUnits="userSpaceOnUse">
<stop stop-color="#F4B8AB"/>
<stop offset="1" stop-color="#FCE0D5"/>
</linearGradient>
<linearGradient id="paint7_linear_5364_35048" x1="548.66" y1="67.4723" x2="467.46" y2="67.4723" gradientUnits="userSpaceOnUse">
<stop stop-color="#EE8464"/>
<stop offset="1" stop-color="#FCE0D5"/>
</linearGradient>
<linearGradient id="paint8_linear_5364_35048" x1="520.39" y1="81.6219" x2="525.67" y2="108.012" gradientUnits="userSpaceOnUse">
<stop stop-color="#FFCDC0"/>
<stop offset="1" stop-color="#14233A"/>
</linearGradient>
<linearGradient id="paint9_linear_5364_35048" x1="544.171" y1="90.4365" x2="521.041" y2="80.4965" gradientUnits="userSpaceOnUse">
<stop stop-color="#393342"/>
<stop offset="1" stop-color="#0C0D0D"/>
</linearGradient>
<linearGradient id="paint10_linear_5364_35048" x1="537.568" y1="67.7679" x2="544.208" y2="93.9579" gradientUnits="userSpaceOnUse">
<stop stop-color="#F4B8AB"/>
<stop offset="1" stop-color="#FCE0D5"/>
</linearGradient>
<linearGradient id="paint11_linear_5364_35048" x1="548.904" y1="62.2504" x2="550.355" y2="82.8504" gradientUnits="userSpaceOnUse">
<stop stop-color="#EE8464"/>
<stop offset="1" stop-color="#14233A"/>
</linearGradient>
<linearGradient id="paint12_linear_5364_35048" x1="565.192" y1="86.8507" x2="567.292" y2="107.461" gradientUnits="userSpaceOnUse">
<stop stop-color="#FFCDC0"/>
<stop offset="1" stop-color="#14233A"/>
</linearGradient>
<linearGradient id="paint13_linear_5364_35048" x1="574.121" y1="79.6397" x2="575.481" y2="98.9597" gradientUnits="userSpaceOnUse">
<stop stop-color="#EE8464"/>
<stop offset="1" stop-color="#14233A"/>
</linearGradient>
<linearGradient id="paint14_linear_5364_35048" x1="511.865" y1="83.2186" x2="518.075" y2="62.6086" gradientUnits="userSpaceOnUse">
<stop stop-color="#F4B8AB"/>
<stop offset="1" stop-color="#FCE0D5"/>
</linearGradient>
<linearGradient id="paint15_linear_5364_35048" x1="496.096" y1="78.4689" x2="502.306" y2="57.8489" gradientUnits="userSpaceOnUse">
<stop stop-color="#F4B8AB"/>
<stop offset="1" stop-color="#FCE0D5"/>
</linearGradient>
<linearGradient id="paint16_linear_5364_35048" x1="549.745" y1="82.5702" x2="548.805" y2="105.6" gradientUnits="userSpaceOnUse">
<stop stop-color="#F9B6A1"/>
<stop offset="1" stop-color="#14233A"/>
</linearGradient>
<linearGradient id="paint17_linear_5364_35048" x1="556.576" y1="93.5103" x2="555.836" y2="111.48" gradientUnits="userSpaceOnUse">
<stop stop-color="#F9B6A1"/>
<stop offset="1" stop-color="#14233A"/>
</linearGradient>
<linearGradient id="paint18_linear_5364_35048" x1="103.161" y1="376.406" x2="692.711" y2="257.816" gradientUnits="userSpaceOnUse">
<stop stop-color="white"/>
<stop offset="1" stop-color="#C3E8F7" stop-opacity="0"/>
</linearGradient>
<linearGradient id="paint19_linear_5364_35048" x1="434.783" y1="-8.32034" x2="513.273" y2="835.39" gradientUnits="userSpaceOnUse">
<stop stop-color="#D7EFF7"/>
<stop offset="1" stop-color="#9DCCED"/>
</linearGradient>
<linearGradient id="paint20_linear_5364_35048" x1="424.05" y1="328.753" x2="311.53" y2="342.333" gradientUnits="userSpaceOnUse">
<stop stop-color="white"/>
<stop offset="1" stop-color="white" stop-opacity="0"/>
</linearGradient>
<linearGradient id="paint21_linear_5364_35048" x1="511.511" y1="343.115" x2="398.991" y2="356.685" gradientUnits="userSpaceOnUse">
<stop stop-color="white"/>
<stop offset="1" stop-color="white" stop-opacity="0"/>
</linearGradient>
<linearGradient id="paint22_linear_5364_35048" x1="917.5" y1="328.752" x2="804.98" y2="342.332" gradientUnits="userSpaceOnUse">
<stop stop-color="white"/>
<stop offset="1" stop-color="white" stop-opacity="0"/>
</linearGradient>
<linearGradient id="paint23_linear_5364_35048" x1="1004.95" y1="343.117" x2="892.431" y2="356.686" gradientUnits="userSpaceOnUse">
<stop stop-color="white"/>
<stop offset="1" stop-color="white" stop-opacity="0"/>
</linearGradient>
<linearGradient id="paint24_linear_5364_35048" x1="593.2" y1="328.752" x2="480.68" y2="342.332" gradientUnits="userSpaceOnUse">
<stop stop-color="white"/>
<stop offset="1" stop-color="white" stop-opacity="0"/>
</linearGradient>
<linearGradient id="paint25_linear_5364_35048" x1="680.65" y1="343.117" x2="568.13" y2="356.686" gradientUnits="userSpaceOnUse">
<stop stop-color="white"/>
<stop offset="1" stop-color="white" stop-opacity="0"/>
</linearGradient>
<linearGradient id="paint26_linear_5364_35048" x1="690.913" y1="308.368" x2="474.113" y2="342.64" gradientUnits="userSpaceOnUse">
<stop stop-color="white"/>
<stop offset="1" stop-color="#9DCCED" stop-opacity="0"/>
</linearGradient>
<linearGradient id="paint27_linear_5364_35048" x1="690.946" y1="308.664" x2="474.281" y2="342.893" gradientUnits="userSpaceOnUse">
<stop stop-color="white"/>
<stop offset="1" stop-color="#9DCCED" stop-opacity="0"/>
</linearGradient>
<linearGradient id="paint28_linear_5364_35048" x1="691.009" y1="309.171" x2="474.459" y2="343.362" gradientUnits="userSpaceOnUse">
<stop stop-color="white"/>
<stop offset="1" stop-color="#9DCCED" stop-opacity="0"/>
</linearGradient>
<linearGradient id="paint29_linear_5364_35048" x1="691.305" y1="310.938" x2="474.64" y2="345.167" gradientUnits="userSpaceOnUse">
<stop stop-color="white"/>
<stop offset="1" stop-color="#9DCCED" stop-opacity="0"/>
</linearGradient>
<linearGradient id="paint30_linear_5364_35048" x1="691.664" y1="313.23" x2="474.999" y2="347.459" gradientUnits="userSpaceOnUse">
<stop stop-color="white"/>
<stop offset="1" stop-color="#9DCCED" stop-opacity="0"/>
</linearGradient>
<linearGradient id="paint31_linear_5364_35048" x1="691.423" y1="311.668" x2="474.74" y2="345.904" gradientUnits="userSpaceOnUse">
<stop stop-color="white"/>
<stop offset="1" stop-color="#9DCCED" stop-opacity="0"/>
</linearGradient>
<linearGradient id="paint32_linear_5364_35048" x1="691.835" y1="314.3" x2="475.17" y2="348.529" gradientUnits="userSpaceOnUse">
<stop stop-color="white"/>
<stop offset="1" stop-color="#9DCCED" stop-opacity="0"/>
</linearGradient>
<linearGradient id="paint33_linear_5364_35048" x1="692.013" y1="315.425" x2="475.35" y2="349.653" gradientUnits="userSpaceOnUse">
<stop stop-color="white"/>
<stop offset="1" stop-color="#9DCCED" stop-opacity="0"/>
</linearGradient>
<linearGradient id="paint34_linear_5364_35048" x1="693.57" y1="325.259" x2="476.91" y2="359.486" gradientUnits="userSpaceOnUse">
<stop stop-color="white"/>
<stop offset="1" stop-color="#9DCCED" stop-opacity="0"/>
</linearGradient>
<linearGradient id="paint35_linear_5364_35048" x1="579.426" y1="310.846" x2="521.606" y2="370.756" gradientUnits="userSpaceOnUse">
<stop stop-color="white"/>
<stop offset="1" stop-color="white" stop-opacity="0"/>
</linearGradient>
<linearGradient id="paint36_linear_5364_35048" x1="698.183" y1="354.46" x2="481.514" y2="388.69" gradientUnits="userSpaceOnUse">
<stop stop-color="white"/>
<stop offset="1" stop-color="#9DCCED" stop-opacity="0"/>
</linearGradient>
<linearGradient id="paint37_linear_5364_35048" x1="684.806" y1="284.212" x2="683.411" y2="294.49" gradientUnits="userSpaceOnUse">
<stop stop-color="#1A3966"/>
<stop offset="0.99" stop-color="#061B2E"/>
</linearGradient>
<linearGradient id="paint38_linear_5364_35048" x1="691.443" y1="270.4" x2="677.453" y2="275.712" gradientUnits="userSpaceOnUse">
<stop/>
<stop offset="0.99" stop-color="#061B2E"/>
</linearGradient>
<linearGradient id="paint39_linear_5364_35048" x1="690.999" y1="269.228" x2="677.009" y2="274.549" gradientUnits="userSpaceOnUse">
<stop/>
<stop offset="0.99" stop-color="#061B2E"/>
</linearGradient>
<linearGradient id="paint40_linear_5364_35048" x1="690.546" y1="268.043" x2="676.556" y2="273.354" gradientUnits="userSpaceOnUse">
<stop/>
<stop offset="0.99" stop-color="#061B2E"/>
</linearGradient>
<linearGradient id="paint41_linear_5364_35048" x1="690.099" y1="266.864" x2="676.109" y2="272.174" gradientUnits="userSpaceOnUse">
<stop/>
<stop offset="0.99" stop-color="#061B2E"/>
</linearGradient>
<linearGradient id="paint42_linear_5364_35048" x1="689.652" y1="265.684" x2="675.661" y2="270.996" gradientUnits="userSpaceOnUse">
<stop/>
<stop offset="0.99" stop-color="#061B2E"/>
</linearGradient>
<linearGradient id="paint43_linear_5364_35048" x1="689.202" y1="264.5" x2="675.211" y2="269.821" gradientUnits="userSpaceOnUse">
<stop/>
<stop offset="0.99" stop-color="#061B2E"/>
</linearGradient>
<linearGradient id="paint44_linear_5364_35048" x1="688.752" y1="263.323" x2="674.762" y2="268.634" gradientUnits="userSpaceOnUse">
<stop/>
<stop offset="0.99" stop-color="#061B2E"/>
</linearGradient>
<linearGradient id="paint45_linear_5364_35048" x1="688.303" y1="262.141" x2="674.313" y2="267.452" gradientUnits="userSpaceOnUse">
<stop/>
<stop offset="0.99" stop-color="#061B2E"/>
</linearGradient>
<linearGradient id="paint46_linear_5364_35048" x1="703.201" y1="286.681" x2="716.5" y2="286.804" gradientUnits="userSpaceOnUse">
<stop/>
<stop offset="0.99" stop-color="#061B2E"/>
</linearGradient>
<linearGradient id="paint47_linear_5364_35048" x1="713.726" y1="264.134" x2="717.536" y2="264.169" gradientUnits="userSpaceOnUse">
<stop/>
<stop offset="0.99" stop-color="#061B2E"/>
</linearGradient>
<linearGradient id="paint48_linear_5364_35048" x1="691.448" y1="270.412" x2="677.458" y2="275.723" gradientUnits="userSpaceOnUse">
<stop/>
<stop offset="0.99" stop-color="#061B2E"/>
</linearGradient>
<linearGradient id="paint49_linear_5364_35048" x1="691.945" y1="271.735" x2="677.965" y2="277.046" gradientUnits="userSpaceOnUse">
<stop/>
<stop offset="0.99" stop-color="#061B2E"/>
</linearGradient>
<linearGradient id="paint50_linear_5364_35048" x1="692.453" y1="273.058" x2="678.462" y2="278.37" gradientUnits="userSpaceOnUse">
<stop/>
<stop offset="0.99" stop-color="#061B2E"/>
</linearGradient>
<linearGradient id="paint51_linear_5364_35048" x1="692.95" y1="274.384" x2="678.97" y2="279.695" gradientUnits="userSpaceOnUse">
<stop/>
<stop offset="0.99" stop-color="#061B2E"/>
</linearGradient>
<linearGradient id="paint52_linear_5364_35048" x1="693.459" y1="275.711" x2="679.479" y2="281.032" gradientUnits="userSpaceOnUse">
<stop/>
<stop offset="0.99" stop-color="#061B2E"/>
</linearGradient>
<linearGradient id="paint53_linear_5364_35048" x1="693.636" y1="276.171" x2="679.655" y2="281.483" gradientUnits="userSpaceOnUse">
<stop/>
<stop offset="0.99" stop-color="#061B2E"/>
</linearGradient>
<linearGradient id="paint54_linear_5364_35048" x1="694.144" y1="277.501" x2="680.154" y2="282.813" gradientUnits="userSpaceOnUse">
<stop/>
<stop offset="0.99" stop-color="#061B2E"/>
</linearGradient>
<linearGradient id="paint55_linear_5364_35048" x1="694.639" y1="278.818" x2="680.659" y2="284.139" gradientUnits="userSpaceOnUse">
<stop/>
<stop offset="0.99" stop-color="#061B2E"/>
</linearGradient>
<linearGradient id="paint56_linear_5364_35048" x1="695.147" y1="280.144" x2="681.157" y2="285.465" gradientUnits="userSpaceOnUse">
<stop/>
<stop offset="0.99" stop-color="#061B2E"/>
</linearGradient>
<linearGradient id="paint57_linear_5364_35048" x1="695.643" y1="281.475" x2="681.663" y2="286.787" gradientUnits="userSpaceOnUse">
<stop/>
<stop offset="0.99" stop-color="#061B2E"/>
</linearGradient>
<linearGradient id="paint58_linear_5364_35048" x1="721.243" y1="302.524" x2="733.089" y2="298.872" gradientUnits="userSpaceOnUse">
<stop stop-color="#1A3966"/>
<stop offset="0.99" stop-color="#061B2E"/>
</linearGradient>
<linearGradient id="paint59_linear_5364_35048" x1="683.081" y1="300.454" x2="706.488" y2="289.2" gradientUnits="userSpaceOnUse">
<stop stop-color="#1A3966"/>
<stop offset="0.99" stop-color="#061B2E"/>
</linearGradient>
<linearGradient id="paint60_linear_5364_35048" x1="702.9" y1="304.038" x2="714.674" y2="298.366" gradientUnits="userSpaceOnUse">
<stop stop-color="#1A3966"/>
<stop offset="0.99" stop-color="#061B2E"/>
</linearGradient>
<linearGradient id="paint61_linear_5364_35048" x1="696.781" y1="294.759" x2="699.843" y2="294.787" gradientUnits="userSpaceOnUse">
<stop stop-color="#1A3966"/>
<stop offset="0.99" stop-color="#061B2E"/>
</linearGradient>
<linearGradient id="paint62_linear_5364_35048" x1="670.259" y1="285.161" x2="680.19" y2="279.821" gradientUnits="userSpaceOnUse">
<stop stop-color="#1A3966"/>
<stop offset="0.99" stop-color="#061B2E"/>
</linearGradient>
<linearGradient id="paint63_linear_5364_35048" x1="675.966" y1="295.807" x2="685.907" y2="290.478" gradientUnits="userSpaceOnUse">
<stop stop-color="#1A3966"/>
<stop offset="0.99" stop-color="#061B2E"/>
</linearGradient>
<linearGradient id="paint64_linear_5364_35048" x1="659.227" y1="281.173" x2="668.467" y2="285.549" gradientUnits="userSpaceOnUse">
<stop stop-color="#1A3966"/>
<stop offset="0.99" stop-color="#061B2E"/>
</linearGradient>
<linearGradient id="paint65_linear_5364_35048" x1="661.993" y1="275.335" x2="671.223" y2="279.71" gradientUnits="userSpaceOnUse">
<stop stop-color="#1A3966"/>
<stop offset="0.99" stop-color="#061B2E"/>
</linearGradient>
<linearGradient id="paint66_linear_5364_35048" x1="661.656" y1="280.595" x2="657.283" y2="280.904" gradientUnits="userSpaceOnUse">
<stop stop-color="#1A3966"/>
<stop offset="0.99" stop-color="#061B2E"/>
</linearGradient>
<linearGradient id="paint67_linear_5364_35048" x1="662.09" y1="286.648" x2="657.707" y2="286.957" gradientUnits="userSpaceOnUse">
<stop stop-color="#072747"/>
<stop offset="0.99" stop-color="#061B2E"/>
</linearGradient>
<linearGradient id="paint68_linear_5364_35048" x1="713.7" y1="342.751" x2="772.574" y2="392.649" gradientUnits="userSpaceOnUse">
<stop stop-color="#0E1325"/>
<stop offset="1" stop-color="#152047"/>
</linearGradient>
<linearGradient id="paint69_linear_5364_35048" x1="625.547" y1="318.513" x2="697.271" y2="319.177" gradientUnits="userSpaceOnUse">
<stop stop-color="#0E1325"/>
<stop offset="1" stop-color="#152047"/>
</linearGradient>
<linearGradient id="paint70_linear_5364_35048" x1="624.768" y1="308.807" x2="643.917" y2="339.446" gradientUnits="userSpaceOnUse">
<stop stop-color="#263775"/>
<stop offset="1" stop-color="#152047"/>
</linearGradient>
<linearGradient id="paint71_linear_5364_35048" x1="654.993" y1="302.82" x2="749.612" y2="303.695" gradientUnits="userSpaceOnUse">
<stop stop-color="#0E1325"/>
<stop offset="1" stop-color="#152047"/>
</linearGradient>
<linearGradient id="paint72_linear_5364_35048" x1="588.436" y1="296.524" x2="659.119" y2="297.178" gradientUnits="userSpaceOnUse">
<stop stop-color="#D7EFF7"/>
<stop offset="1" stop-color="#9DCCED"/>
</linearGradient>
<linearGradient id="paint73_linear_5364_35048" x1="592.921" y1="298.188" x2="600.293" y2="298.257" gradientUnits="userSpaceOnUse">
<stop stop-color="#0E1325"/>
<stop offset="1" stop-color="#152047"/>
</linearGradient>
<linearGradient id="paint74_linear_5364_35048" x1="601.541" y1="298.224" x2="608.911" y2="298.292" gradientUnits="userSpaceOnUse">
<stop stop-color="#0E1325"/>
<stop offset="1" stop-color="#152047"/>
</linearGradient>
<linearGradient id="paint75_linear_5364_35048" x1="610.405" y1="298.263" x2="617.775" y2="298.332" gradientUnits="userSpaceOnUse">
<stop stop-color="#0E1325"/>
<stop offset="1" stop-color="#152047"/>
</linearGradient>
<linearGradient id="paint76_linear_5364_35048" x1="619.292" y1="298.294" x2="626.662" y2="298.362" gradientUnits="userSpaceOnUse">
<stop stop-color="#0E1325"/>
<stop offset="1" stop-color="#152047"/>
</linearGradient>
<linearGradient id="paint77_linear_5364_35048" x1="628.155" y1="298.333" x2="635.525" y2="298.402" gradientUnits="userSpaceOnUse">
<stop stop-color="#0E1325"/>
<stop offset="1" stop-color="#152047"/>
</linearGradient>
<linearGradient id="paint78_linear_5364_35048" x1="637.042" y1="298.364" x2="644.413" y2="298.432" gradientUnits="userSpaceOnUse">
<stop stop-color="#0E1325"/>
<stop offset="1" stop-color="#152047"/>
</linearGradient>
<linearGradient id="paint79_linear_5364_35048" x1="645.906" y1="298.403" x2="653.276" y2="298.472" gradientUnits="userSpaceOnUse">
<stop stop-color="#0E1325"/>
<stop offset="1" stop-color="#152047"/>
</linearGradient>
<linearGradient id="paint80_linear_5364_35048" x1="682.36" y1="348.41" x2="630.644" y2="363.106" gradientUnits="userSpaceOnUse">
<stop stop-color="white"/>
<stop offset="1" stop-color="#9DCCED" stop-opacity="0"/>
</linearGradient>
<linearGradient id="paint81_linear_5364_35048" x1="682.106" y1="347.489" x2="630.395" y2="362.182" gradientUnits="userSpaceOnUse">
<stop stop-color="white"/>
<stop offset="1" stop-color="#9DCCED" stop-opacity="0"/>
</linearGradient>
<linearGradient id="paint82_linear_5364_35048" x1="682.034" y1="347.171" x2="630.335" y2="361.857" gradientUnits="userSpaceOnUse">
<stop stop-color="white"/>
<stop offset="1" stop-color="#9DCCED" stop-opacity="0"/>
</linearGradient>
<linearGradient id="paint83_linear_5364_35048" x1="681.169" y1="344.184" x2="629.459" y2="358.877" gradientUnits="userSpaceOnUse">
<stop stop-color="white"/>
<stop offset="1" stop-color="#9DCCED" stop-opacity="0"/>
</linearGradient>
<linearGradient id="paint84_linear_5364_35048" x1="680.052" y1="340.232" x2="628.332" y2="354.925" gradientUnits="userSpaceOnUse">
<stop stop-color="white"/>
<stop offset="1" stop-color="#9DCCED" stop-opacity="0"/>
</linearGradient>
<linearGradient id="paint85_linear_5364_35048" x1="680.039" y1="340.193" x2="628.314" y2="354.889" gradientUnits="userSpaceOnUse">
<stop stop-color="white"/>
<stop offset="1" stop-color="#9DCCED" stop-opacity="0"/>
</linearGradient>
<linearGradient id="paint86_linear_5364_35048" x1="679.625" y1="338.755" x2="627.915" y2="353.448" gradientUnits="userSpaceOnUse">
<stop stop-color="white"/>
<stop offset="1" stop-color="#9DCCED" stop-opacity="0"/>
</linearGradient>
<linearGradient id="paint87_linear_5364_35048" x1="679.231" y1="337.348" x2="627.52" y2="352.04" gradientUnits="userSpaceOnUse">
<stop stop-color="white"/>
<stop offset="1" stop-color="#9DCCED" stop-opacity="0"/>
</linearGradient>
<linearGradient id="paint88_linear_5364_35048" x1="678.702" y1="335.486" x2="626.99" y2="350.18" gradientUnits="userSpaceOnUse">
<stop stop-color="white"/>
<stop offset="1" stop-color="#9DCCED" stop-opacity="0"/>
</linearGradient>
<linearGradient id="paint89_linear_5364_35048" x1="677.286" y1="330.517" x2="625.575" y2="345.21" gradientUnits="userSpaceOnUse">
<stop stop-color="white"/>
<stop offset="1" stop-color="#9DCCED" stop-opacity="0"/>
</linearGradient>
<linearGradient id="paint90_linear_5364_35048" x1="676.147" y1="326.486" x2="624.427" y2="341.169" gradientUnits="userSpaceOnUse">
<stop stop-color="white"/>
<stop offset="1" stop-color="#9DCCED" stop-opacity="0"/>
</linearGradient>
<linearGradient id="paint91_linear_5364_35048" x1="675.277" y1="323.445" x2="623.566" y2="338.138" gradientUnits="userSpaceOnUse">
<stop stop-color="white"/>
<stop offset="1" stop-color="#9DCCED" stop-opacity="0"/>
</linearGradient>
<linearGradient id="paint92_linear_5364_35048" x1="674.514" y1="320.734" x2="622.792" y2="335.428" gradientUnits="userSpaceOnUse">
<stop stop-color="white"/>
<stop offset="1" stop-color="#9DCCED" stop-opacity="0"/>
</linearGradient>
<linearGradient id="paint93_linear_5364_35048" x1="-1440" y1="411.37" x2="2381.69" y2="411.37" gradientUnits="userSpaceOnUse">
<stop stop-color="#1E141B"/>
<stop offset="0.99" stop-color="#473234"/>
</linearGradient>
<linearGradient id="paint94_linear_5364_35048" x1="147.26" y1="500.06" x2="147.26" y2="552" gradientUnits="userSpaceOnUse">
<stop stop-color="#1E141B"/>
<stop offset="0.99" stop-color="#473234"/>
</linearGradient>
<linearGradient id="paint95_linear_5364_35048" x1="211.525" y1="375.396" x2="-92.6755" y2="358.453" gradientUnits="userSpaceOnUse">
<stop stop-color="#1E141B"/>
<stop offset="0.99" stop-color="#473234"/>
</linearGradient>
<linearGradient id="paint96_linear_5364_35048" x1="531.981" y1="267.958" x2="518.021" y2="276.434" gradientUnits="userSpaceOnUse">
<stop stop-color="#EE8464"/>
<stop offset="1" stop-color="#FCE0D5"/>
</linearGradient>
<linearGradient id="paint97_linear_5364_35048" x1="536.572" y1="276.03" x2="522.732" y2="284.427" gradientUnits="userSpaceOnUse">
<stop stop-color="#EE8464"/>
<stop offset="1" stop-color="#FCE0D5"/>
</linearGradient>
<linearGradient id="paint98_linear_5364_35048" x1="455.8" y1="234.401" x2="517.335" y2="334.952" gradientUnits="userSpaceOnUse">
<stop stop-color="#EE8464"/>
<stop offset="1" stop-color="#F9B6A1"/>
</linearGradient>
<linearGradient id="paint99_linear_5364_35048" x1="506.894" y1="335.309" x2="511.3" y2="357.239" gradientUnits="userSpaceOnUse">
<stop stop-color="#EE8464"/>
<stop offset="1" stop-color="#FCE0D5"/>
</linearGradient>
<linearGradient id="paint100_linear_5364_35048" x1="482.325" y1="334.225" x2="510.067" y2="334.293" gradientUnits="userSpaceOnUse">
<stop stop-color="#EE8464"/>
<stop offset="1" stop-color="#FCE0D5"/>
</linearGradient>
<linearGradient id="paint101_linear_5364_35048" x1="448.246" y1="325.67" x2="465.473" y2="325.712" gradientUnits="userSpaceOnUse">
<stop stop-color="#EE8464"/>
<stop offset="1" stop-color="#FCE0D5"/>
</linearGradient>
<linearGradient id="paint102_linear_5364_35048" x1="402.661" y1="325.584" x2="440.256" y2="325.676" gradientUnits="userSpaceOnUse">
<stop stop-color="#EE8464"/>
<stop offset="1" stop-color="#FCE0D5"/>
</linearGradient>
<linearGradient id="paint103_linear_5364_35048" x1="346.969" y1="307.263" x2="376.765" y2="307.336" gradientUnits="userSpaceOnUse">
<stop stop-color="#EE8464"/>
<stop offset="1" stop-color="#FCE0D5"/>
</linearGradient>
<linearGradient id="paint104_linear_5364_35048" x1="275.725" y1="307.139" x2="333.181" y2="307.279" gradientUnits="userSpaceOnUse">
<stop stop-color="#EE8464"/>
<stop offset="1" stop-color="#FCE0D5"/>
</linearGradient>
<linearGradient id="paint105_linear_5364_35048" x1="257.81" y1="172.664" x2="286.132" y2="172.734" gradientUnits="userSpaceOnUse">
<stop stop-color="#C6985D"/>
<stop offset="1" stop-color="#DEBA86"/>
</linearGradient>
<linearGradient id="paint106_linear_5364_35048" x1="240.891" y1="219.567" x2="264.042" y2="239.354" gradientUnits="userSpaceOnUse">
<stop stop-color="#FCE0D6"/>
<stop offset="1" stop-color="#DDB4A8"/>
</linearGradient>
<linearGradient id="paint107_linear_5364_35048" x1="242.441" y1="180.054" x2="265.592" y2="199.84" gradientUnits="userSpaceOnUse">
<stop stop-color="#FCE0D6"/>
<stop offset="1" stop-color="#DDB4A8"/>
</linearGradient>
<linearGradient id="paint108_linear_5364_35048" x1="432.682" y1="206.406" x2="585.2" y2="334.669" gradientUnits="userSpaceOnUse">
<stop stop-color="#EE8464"/>
<stop offset="1" stop-color="#FCE0D5"/>
</linearGradient>
<linearGradient id="paint109_linear_5364_35048" x1="427.806" y1="316.422" x2="564.087" y2="431.036" gradientUnits="userSpaceOnUse">
<stop stop-color="#EE8464"/>
<stop offset="1" stop-color="#FCE0D5"/>
</linearGradient>
<linearGradient id="paint110_linear_5364_35048" x1="478.335" y1="127.804" x2="406.662" y2="398.851" gradientUnits="userSpaceOnUse">
<stop stop-color="#EE8464"/>
<stop offset="1" stop-color="#FCE0D5"/>
</linearGradient>
<linearGradient id="paint111_linear_5364_35048" x1="365.899" y1="98.07" x2="294.227" y2="369.107" gradientUnits="userSpaceOnUse">
<stop stop-color="#EE8464"/>
<stop offset="1" stop-color="#FCE0D5"/>
</linearGradient>
<linearGradient id="paint112_linear_5364_35048" x1="352.918" y1="94.6384" x2="281.245" y2="365.675" gradientUnits="userSpaceOnUse">
<stop stop-color="#EE8464"/>
<stop offset="1" stop-color="#FCE0D5"/>
</linearGradient>
<linearGradient id="paint113_linear_5364_35048" x1="410.477" y1="109.868" x2="338.804" y2="380.905" gradientUnits="userSpaceOnUse">
<stop stop-color="#EE8464"/>
<stop offset="1" stop-color="#FCE0D5"/>
</linearGradient>
<linearGradient id="paint114_linear_5364_35048" x1="610.035" y1="356.04" x2="610.035" y2="339.51" gradientUnits="userSpaceOnUse">
<stop stop-color="#1E141B"/>
<stop offset="0.99" stop-color="#473234"/>
</linearGradient>
<linearGradient id="paint115_linear_5364_35048" x1="617.896" y1="354.091" x2="625.516" y2="375.271" gradientUnits="userSpaceOnUse">
<stop stop-color="#1E141B"/>
<stop offset="0.99" stop-color="#473234"/>
</linearGradient>
<linearGradient id="paint116_linear_5364_35048" x1="542.655" y1="356.04" x2="542.655" y2="339.51" gradientUnits="userSpaceOnUse">
<stop stop-color="#1E141B"/>
<stop offset="0.99" stop-color="#473234"/>
</linearGradient>
<linearGradient id="paint117_linear_5364_35048" x1="550.516" y1="354.091" x2="558.136" y2="375.271" gradientUnits="userSpaceOnUse">
<stop stop-color="#1E141B"/>
<stop offset="0.99" stop-color="#473234"/>
</linearGradient>
<linearGradient id="paint118_linear_5364_35048" x1="166.015" y1="356.04" x2="166.015" y2="339.51" gradientUnits="userSpaceOnUse">
<stop stop-color="#1E141B"/>
<stop offset="0.99" stop-color="#473234"/>
</linearGradient>
<linearGradient id="paint119_linear_5364_35048" x1="173.876" y1="354.091" x2="181.496" y2="375.271" gradientUnits="userSpaceOnUse">
<stop stop-color="#1E141B"/>
<stop offset="0.99" stop-color="#473234"/>
</linearGradient>
<linearGradient id="paint120_linear_5364_35048" x1="89.8248" y1="356.04" x2="89.8248" y2="339.51" gradientUnits="userSpaceOnUse">
<stop stop-color="#1E141B"/>
<stop offset="0.99" stop-color="#473234"/>
</linearGradient>
<linearGradient id="paint121_linear_5364_35048" x1="97.6861" y1="354.091" x2="105.306" y2="375.271" gradientUnits="userSpaceOnUse">
<stop stop-color="#1E141B"/>
<stop offset="0.99" stop-color="#473234"/>
</linearGradient>
<linearGradient id="paint122_linear_5364_35048" x1="680.505" y1="356.04" x2="680.505" y2="339.51" gradientUnits="userSpaceOnUse">
<stop stop-color="#1E141B"/>
<stop offset="0.99" stop-color="#473234"/>
</linearGradient>
<linearGradient id="paint123_linear_5364_35048" x1="688.378" y1="354.087" x2="696.008" y2="375.267" gradientUnits="userSpaceOnUse">
<stop stop-color="#1E141B"/>
<stop offset="0.99" stop-color="#473234"/>
</linearGradient>
<linearGradient id="paint124_linear_5364_35048" x1="750.985" y1="356.04" x2="750.985" y2="339.51" gradientUnits="userSpaceOnUse">
<stop stop-color="#1E141B"/>
<stop offset="0.99" stop-color="#473234"/>
</linearGradient>
<linearGradient id="paint125_linear_5364_35048" x1="758.858" y1="354.087" x2="766.487" y2="375.267" gradientUnits="userSpaceOnUse">
<stop stop-color="#1E141B"/>
<stop offset="0.99" stop-color="#473234"/>
</linearGradient>
<linearGradient id="paint126_linear_5364_35048" x1="821.465" y1="356.04" x2="821.465" y2="339.51" gradientUnits="userSpaceOnUse">
<stop stop-color="#1E141B"/>
<stop offset="0.99" stop-color="#473234"/>
</linearGradient>
<linearGradient id="paint127_linear_5364_35048" x1="829.326" y1="354.091" x2="836.946" y2="375.271" gradientUnits="userSpaceOnUse">
<stop stop-color="#1E141B"/>
<stop offset="0.99" stop-color="#473234"/>
</linearGradient>
<linearGradient id="paint128_linear_5364_35048" x1="891.945" y1="356.04" x2="891.945" y2="339.51" gradientUnits="userSpaceOnUse">
<stop stop-color="#1E141B"/>
<stop offset="0.99" stop-color="#473234"/>
</linearGradient>
<linearGradient id="paint129_linear_5364_35048" x1="899.806" y1="354.091" x2="907.426" y2="375.272" gradientUnits="userSpaceOnUse">
<stop stop-color="#1E141B"/>
<stop offset="0.99" stop-color="#473234"/>
</linearGradient>
<clipPath id="clip0_5364_35048">
<rect width="1535" height="468" fill="white" transform="translate(-19)"/>
</clipPath>
<clipPath id="clip1_5364_35048">
<rect width="3821.7" height="417.4" fill="white" transform="translate(-1440 52)"/>
</clipPath>
</defs>
</svg>
