<svg width="30" height="30" viewBox="0 0 30 30" fill="none" xmlns="http://www.w3.org/2000/svg">
<path d="M15.9501 22H4.8501V13H16.6001" stroke="#004C82" stroke-linecap="round" stroke-linejoin="round"/>
<path d="M9.1499 15.1V19.75" stroke="#004C82" stroke-linecap="round" stroke-linejoin="round"/>
<path d="M12.75 15.1V19.75" stroke="#004C82" stroke-linecap="round" stroke-linejoin="round"/>
<path d="M19 22.05H23.15C24.2 22.05 25.15 21.5 25.7 20.65C26.5 19.35 26.85 17.95 26.6 17.05C26.2 15.4 24.85 14.25 24.85 14.25C25 16.4 23.05 16.25 22.95 15C22.85 13.75 23.8 13.45 23.1 11.2C22.45 8.95 20.45 8.7 20.45 8.7C21.3 9.95 20.6 10.2 18.9 12.1C17.15 14 18.15 16.15 18.05 16.55C17.95 16.95 17.15 16.95 16.9 16.3C16.85 16.2 16.85 16.05 16.85 15.95C16.85 15.6 16.4 15.5 16.25 15.8C15.45 17.3 15.6 18.5 15.6 18.5C15.65 19.35 15.95 20.1 16.3 20.65C16.95 21.55 17.95 22.05 19 22.05Z" stroke="#EC6625" stroke-linecap="round" stroke-linejoin="round"/>
</svg>
