<svg width="426" height="112" viewBox="0 0 426 112" fill="none" xmlns="http://www.w3.org/2000/svg">
<path d="M0 20C0 8.95431 8.95431 0 20 0H406C417.046 0 426 8.9543 426 20V111H0V20Z" fill="#FFF2EB"/>
<path d="M68 111.367C68 111.367 77.3674 80.5762 115.265 78.974C153.163 77.3718 167.837 83.7806 187.642 62.3967C207.448 41.0127 236.652 35.0957 256.87 63.9117C277.088 92.7356 342.644 57.2887 358 111.367H68Z" fill="#FAE2D7"/>
<path d="M180.806 87.7315L177.53 81.3782L174.904 82.909C174.238 83.2977 173.857 84.0274 173.921 84.7967C174.056 86.3276 176.832 93.363 177.776 94.5766C178.252 95.1794 179.029 95.457 179.782 95.2825L182.749 94.6083L180.814 87.7236L180.806 87.7315Z" fill="#CE4D27"/>
<path d="M183.301 86.7391L180.104 76.8641L177.011 79.2357C176.535 79.6006 176.25 80.1479 176.226 80.7428C176.178 82.0515 176.4 84.669 178.161 88.7617C179.668 92.9576 181.294 95.0278 182.222 95.9479C182.643 96.3683 183.23 96.5745 183.824 96.511L187.703 96.1303L183.301 86.7312V86.7391Z" fill="#EB6625"/>
<path d="M234.728 66.7032L224.575 32.5571C216.85 58.9777 196.513 69.7887 196.513 69.7887L200.59 80.1317L200.605 80.1792L204.682 90.5222C204.682 90.5222 226.923 84.5417 250.607 98.5888L234.72 66.7032H234.728Z" fill="#E96625"/>
<path d="M198.794 68.5678L200.405 67.267C200.405 67.267 201.705 67.3146 202.451 70.868C203.197 74.4214 207.979 87.8736 213.008 89.3727C213.008 89.3727 207.337 89.4917 203.434 91.2446L198.802 68.5678H198.794Z" fill="#CE4D27"/>
<path d="M257.811 102.577C263.573 100.305 261.407 81.122 252.972 59.7313C244.537 38.3405 233.029 22.8418 227.266 25.114C221.504 27.3862 223.67 46.5688 232.105 67.9595C240.539 89.3503 252.048 104.849 257.811 102.577Z" fill="#E96625"/>
<path d="M240.867 71.6925L252.281 66.2831C252.281 66.2831 254.978 69.773 252.971 73.612C250.964 77.451 245.698 81.9403 245.698 81.9403L240.867 71.6925Z" fill="#CE4D27"/>
<path d="M242.742 77.0305L252.759 70.3758C256.321 68.0121 258.018 63.6021 256.805 59.5093C256.701 59.1603 256.115 57.6691 255.948 57.336C254.044 53.5129 249.793 51.4506 245.573 52.1486L233.715 54.1236C233.795 54.7106 233.961 55.5434 234.175 56.5032C235.643 62.9913 238.102 69.2256 241.457 74.9682C241.956 75.8169 242.401 76.5387 242.742 77.0225V77.0305Z" fill="white"/>
<path d="M233.717 54.1314L235.335 53.8617C235.335 53.8617 241.514 69.4158 246.249 74.7063L241.832 78.0059C241.832 78.0059 232.845 56.2412 233.717 54.1314Z" fill="#FAE2D7"/>
<path d="M238.514 65.966C232.612 50.9908 229.344 37.3324 229.606 30.2097C226.989 33.8742 229.931 49.2855 236.776 66.6481C243.622 84.0106 251.99 97.2884 256.4 98.1767C251.347 93.148 244.415 80.9411 238.506 65.966H238.514Z" fill="#CE4D27"/>
<path d="M191.251 97.4783C192.354 100.254 198.35 111.367 198.35 111.367L217.053 111.335C217.053 111.335 210.763 105.743 204.981 90.9347C204.616 89.9987 203.712 89.3959 202.713 89.4356C202.403 89.4514 202.054 89.4911 201.65 89.5783C201.428 89.6259 201.214 89.7132 201.007 89.8242L192.251 94.6626C191.259 95.2099 190.823 96.4076 191.243 97.4704L191.251 97.4783Z" fill="#18325A"/>
<path d="M204.804 94.6065C205.01 95.4473 205.542 97.1606 206.644 98.5962C206.795 98.7945 207.057 98.8659 207.287 98.7945L208.421 98.4455C208.421 98.4455 209.016 98.2155 209.119 97.6444C209.151 97.4699 209.095 97.2875 208.992 97.1368C208.667 96.6212 207.802 95.2094 207.556 94.0592C207.556 94.0592 207.334 93.0599 205.994 93.6151L205.177 93.9165C204.891 94.0196 204.725 94.321 204.804 94.6224V94.6065Z" fill="#E96625"/>
<path d="M203.765 79.1416C202.266 75.3502 201.195 71.6778 200.552 68.402C200.378 67.4978 199.418 66.9822 198.554 67.3233L180.152 74.5808C178.526 75.2233 177.63 76.9524 178.01 78.6577C178.669 81.6004 179.652 84.8207 180.953 88.1282C182.254 91.4358 183.737 94.4657 185.268 97.0594C186.156 98.5664 187.989 99.2247 189.615 98.5822L208.016 91.3247C208.873 90.9836 209.23 89.9605 208.738 89.1752C206.977 86.3436 205.248 82.9329 203.757 79.1336L203.765 79.1416Z" fill="#18325A"/>
<path d="M194.464 74.6869L185.174 78.35C184.008 78.8096 183.436 80.127 183.896 81.2925L183.899 81.2998C184.358 82.4654 185.675 83.0376 186.841 82.578L196.131 78.9149C197.296 78.4553 197.869 77.1379 197.409 75.9724L197.406 75.9651C196.947 74.7995 195.629 74.2273 194.464 74.6869Z" fill="#112147"/>
<path d="M198.015 83.6932L188.725 87.3563C187.56 87.8159 186.987 89.1333 187.447 90.2988L187.45 90.3062C187.909 91.4717 189.227 92.044 190.392 91.5844L199.682 87.9213C200.848 87.4617 201.42 86.1443 200.96 84.9788L200.957 84.9714C200.498 83.8059 199.181 83.2336 198.015 83.6932Z" fill="#112147"/>
<path d="M193.131 98.6609C193.131 98.6609 196.518 107.909 200.524 110.368C200.524 110.368 196.828 105.45 193.131 98.6609Z" fill="#112147"/>
<path d="M257.729 46.7396C257.539 46.819 257.309 46.811 257.118 46.7C256.769 46.5096 256.65 46.0654 256.849 45.7244L258.744 42.3534C259.577 40.8622 261.092 39.8945 262.798 39.7597L264.646 39.6169C265.939 39.5138 267.097 38.7207 267.668 37.5547L270.586 31.5266C270.761 31.1696 271.189 31.0189 271.546 31.1934C271.903 31.3679 272.054 31.7962 271.879 32.1532L268.96 38.1813C268.175 39.8073 266.565 40.9098 264.765 41.0526L262.917 41.1954C261.703 41.2905 260.6 41.9885 259.998 43.0593L258.102 46.4303C258.015 46.581 257.888 46.6841 257.737 46.7476L257.729 46.7396Z" fill="#FFDACE"/>
<path d="M284.608 67.8306C284.449 67.894 284.259 67.9019 284.085 67.8306L277.834 65.4193C276.621 64.9513 275.233 65.1655 274.217 65.9745L272.766 67.1246C271.425 68.1875 269.657 68.5127 268.031 67.9971L264.342 66.8232C263.962 66.7043 263.755 66.2997 263.874 65.927C263.993 65.5542 264.398 65.34 264.771 65.459L268.459 66.6329C269.633 67.0057 270.902 66.7677 271.862 66.0063L273.313 64.8562C274.725 63.7299 276.652 63.4364 278.342 64.0868L284.592 66.498C284.965 66.6408 285.147 67.0533 285.005 67.426C284.933 67.6243 284.775 67.7671 284.6 67.8306H284.608Z" fill="#FFDACE"/>
</svg>
