<svg width="200" height="124" viewBox="0 0 200 124" fill="none" xmlns="http://www.w3.org/2000/svg">
<path d="M23.1349 68.6124C23.1389 68.5846 23.1469 68.5567 23.1509 68.5288C23.6523 66.1011 22.6534 63.5938 20.7152 62.3919C13.3246 57.823 8.30995 48.9678 8.30995 38.7953V38.5326C8.30995 23.6798 18.9879 11.6367 32.1652 11.6367H145.651C155.266 11.6367 163.556 18.0523 167.329 27.2975C169.618 32.9051 173.661 37.3466 178.608 40.0012C191.256 46.7709 200 61.3054 200 78.1442V81.6425C200 104.953 183.241 123.845 162.569 123.845H22.7608C10.1884 123.841 0 112.347 0 98.1748C0 85.3955 8.28209 74.8011 19.1272 72.839C21.1052 72.4808 22.6932 70.8053 23.1429 68.6045L23.1349 68.6124Z" fill="#FFF2EB"/>
<path d="M4.85742 114.036C9.02434 120.01 15.4956 123.85 22.7589 123.854H162.568C171.701 123.854 180.067 120.165 186.566 114.036H4.85742Z" fill="#FCDACE"/>
<path d="M144.533 60.7744L176.452 66.1114C176.452 66.1114 185.227 66.7243 184.392 74.3696L174.697 114.081H136.665L144.533 60.7824V60.7784V60.7744Z" fill="#112147"/>
<path d="M145.941 60.9334L156.901 62.8397L151.604 89.7913C150.494 95.4427 150.06 101.206 150.311 106.956L150.621 114.033H134.097L145.945 60.9294H145.941V60.9334Z" fill="#090F14"/>
<path d="M101.66 31.4873C101.66 31.4873 101.425 39.057 99.6939 43.2279C97.9627 47.3988 95.6822 51.7209 98.6711 55.5774L118.025 47.2117L101.664 31.4873H101.66Z" fill="#051830"/>
<path d="M68.143 98.2979L65.2735 99.7506L60.9593 102.393C59.845 103.074 58.9296 104.033 58.2968 105.175L55.2562 110.671C55.1049 110.942 55.2124 111.288 55.491 111.424C55.9367 111.642 56.5775 111.79 56.9954 111.117L58.3127 109.465L58.3724 111.702C58.3804 112.08 58.7545 112.343 59.1127 112.223C59.6221 112.052 60.2469 111.571 60.5096 110.253L60.6767 112.116C60.7245 112.617 61.218 112.96 61.7075 112.812C62.1413 112.681 62.6149 112.359 62.8696 111.591C63.4189 109.939 63.9721 107.344 63.9721 107.344L65.2695 106.142L64.2069 109.31L63.9124 113.218C63.8766 113.744 64.3422 114.174 64.8596 114.07C65.4048 113.963 66.0137 113.64 66.2486 112.773C66.5351 111.71 67.3311 110.146 67.9002 109.095C68.2743 108.403 68.9986 107.973 69.7827 107.973H70.7299C70.7299 107.973 70.0254 108.387 69.6712 109.274C69.4086 109.935 69.6792 110.687 70.2881 111.049C71.092 111.527 72.3616 112.092 73.48 111.75C73.48 111.75 75.5256 111.121 74.8172 107.738L75.5296 102.863L68.139 98.3019V98.2939H68.131L68.143 98.2979Z" fill="#F9B694"/>
<path d="M120.179 45.7063L105.625 49.0135C105.625 49.0135 98.3095 49.9568 94.3734 57.5901L79.4927 80.0326C77.3197 83.312 78.0122 87.7097 81.0926 90.1574C84.4118 92.796 89.2474 92.199 91.8263 88.836L94.1347 85.8273C94.1347 85.8273 94.6083 90.7822 97.9116 93.9303L99.3284 114.068H142.203V93.3014C142.203 93.3014 148.496 74.811 149.916 61.5103C149.916 61.5103 150.024 56.9215 145.738 53.5705C144.464 52.5715 142.987 51.8591 141.427 51.4373L120.179 45.6943H120.183V45.7023L120.179 45.7063Z" fill="#E96526"/>
<path d="M85.0175 81.4194L79.5014 80.0225C79.5014 80.0225 69.8344 87.0788 65.2734 99.7467C65.2734 99.7467 70.3836 99.3447 75.1435 105.565L88.5158 91.3014L85.0175 81.4154V81.4194Z" fill="#E96526"/>
<path d="M106.81 30.3617L108.541 51.1326L107.801 63.8124C107.717 65.2133 107.765 66.6222 107.944 68.0231L108.545 72.787L110.694 65.8899C111.299 63.9358 112.186 62.0811 113.325 60.3778L118.534 52.5573L128.321 45.716L129.232 20.6986L106.81 30.3776V30.3696V30.3617Z" fill="#F9B694"/>
<path d="M123.095 38.0474L126.414 21.901L106.81 30.3622L108.541 51.1331L108.139 58.0223L114.582 52.4982C118.944 48.7572 121.941 43.6749 123.099 38.0474H123.095Z" fill="#E37F63"/>
<path d="M97.9637 19.1573C97.9637 19.1573 96.4196 21.0199 96.133 22.4088C95.8465 23.7978 97.0484 32.2311 97.0484 32.2311C97.0484 32.2311 98.6642 37.0707 102.525 36.7682L101.275 20.2557L97.9677 19.1533L97.9637 19.1573Z" fill="#FFF0E9"/>
<path d="M102.043 11.6695C102.011 11.6974 101.987 11.7252 101.959 11.7531C100.141 13.544 99.2053 16.0473 99.3764 18.5945L100.634 37.073C100.765 38.9555 101.462 40.7504 102.64 42.2309L103.273 43.0268C104.439 44.4914 106.082 45.4983 107.921 45.8725L109.776 46.2505C111.328 46.5689 112.944 46.4137 114.412 45.8128L119.717 43.6318C123.785 41.9563 126.595 38.1794 127.028 33.8095L128.159 22.4191C128.159 22.4191 123.506 8.76818 107.969 9.2179C105.752 9.28158 103.631 10.1492 102.035 11.6894L102.043 11.6814V11.6695Z" fill="#F9B694"/>
<path d="M124.464 25.4033L121.929 32.2248C121.929 32.2248 119.115 39.2453 121.734 42.5525L128.161 38.5806L124.46 25.4033H124.464Z" fill="#E37F63"/>
<path d="M111.157 44.3192L111.065 43.5033L115.376 43.0297C116.904 42.8626 118.329 42.2497 119.503 41.2667L126.173 35.667L126.698 36.2958L120.028 41.8955C118.731 42.9899 117.151 43.6585 115.463 43.8456L111.153 44.3192H111.157Z" fill="#FFF1EA"/>
<path d="M110.736 44.9678C111.875 44.9678 112.798 44.5187 112.798 43.9648C112.798 43.4109 111.875 42.9619 110.736 42.9619C109.598 42.9619 108.675 43.4109 108.675 43.9648C108.675 44.5187 109.598 44.9678 110.736 44.9678Z" fill="#FFF0E9"/>
<path d="M107.948 11.5217C107.948 11.5217 118.63 16.1025 120.727 19.1233C122.824 22.14 123.907 24.1498 123.955 26.0562L125.181 38.5848V47.0539L142.787 51.8974C142.787 51.8974 139.03 47.0062 138.008 41.104C136.985 35.2019 131.365 14.4469 131.365 14.4469C131.365 14.4469 131.007 5.77879 121.726 2.55112C112.441 -0.676546 110.109 1.68749 110.109 1.68749C110.109 1.68749 104.047 1.55217 100.891 5.87032C97.7354 10.1845 95.6977 17.002 97.1503 19.768C98.599 22.534 99.8327 25.0692 99.8327 25.0692L99.5462 20.8266C99.4268 19.0437 99.9163 17.2647 100.943 15.7961C102.324 13.8181 104.644 11.5177 107.968 11.5177H107.96L107.948 11.5217Z" fill="#051830"/>
<path d="M128.167 20.2528L126.356 20.3046C126.356 20.3046 124.689 20.9652 124.458 22.5731C124.227 24.181 123.093 32.7456 123.093 32.7456C123.093 32.7456 122.978 38.1423 128.716 37.9274L128.167 20.2489V20.2528Z" fill="#F8D0BD"/>
<path d="M129.228 18.4612C129.228 18.4612 127.429 19.0263 126.351 20.3039C125.933 20.8013 125.682 21.4103 125.61 22.047L124.504 31.73C124.504 31.73 123.915 35.4791 126.868 37.5406C126.868 37.5406 129.634 38.6391 130.864 36.7606C131.926 35.1448 132.511 25.0319 132.655 22.2818C132.698 21.4142 132.468 20.5466 131.962 19.8382C131.453 19.1258 130.613 18.4652 129.224 18.4572L129.228 18.4612Z" fill="#FFF0E9"/>
<path d="M125.181 38.5811L124.098 43.7072C123.899 44.6464 123.537 45.5459 123.028 46.3578C122.12 47.8104 120.695 50.4968 120.731 53.032C120.731 53.032 131.56 45.1877 131.636 45.0285C131.712 44.8693 125.185 38.5771 125.185 38.5771L125.181 38.5811Z" fill="#E37F63"/>
<path d="M128.162 72.7793L118.925 75.0518L119.868 57.0389C119.868 57.0389 119.788 52.3188 122.936 50.5119L127.107 43.985L125.77 40.5265C125.77 40.5265 124.278 42.2577 123.092 40.7613C123.092 40.7613 122.18 41.0876 121.643 40.4827C121.436 40.2519 121.484 39.8937 121.727 39.7066L125.452 36.9088L124.107 36.4232C123.609 36.2402 123.215 35.8501 123.04 35.3566C123.04 35.3487 123.036 35.3407 123.032 35.3288C122.821 34.7238 123.362 34.1189 123.991 34.2463L127.493 34.9467C127.493 34.9467 126.996 34.2184 126.877 33.4582C126.793 32.909 127.45 32.5508 127.872 32.921C128.986 33.904 131.055 35.7108 131.115 35.6511C131.195 35.5715 135.047 43.1253 135.047 43.1253C135.047 43.1253 136.663 46.548 135.561 48.0444C134.458 49.5369 128.007 56.7762 128.007 56.7762L128.158 72.7992V72.7832H128.162V72.7793Z" fill="#F9B694"/>
<path d="M116.613 75.9516L128.163 72.7796C128.163 72.7796 119.375 73.898 116.613 75.9516Z" fill="#DD4726"/>
<path d="M128.724 73.5919L129.742 80.8313L136.667 61.9509L128.724 73.5919Z" fill="#DD4726"/>
<path d="M129.821 81.4587L131.787 92.7854C131.787 92.7854 131.553 84.6823 129.821 81.4587Z" fill="#DD4726"/>
<path d="M131.554 85.2373C131.554 85.2373 133.755 88.2302 133.285 90.033L131.554 85.2373Z" fill="#DD4726"/>
<path d="M116.613 92.7975L118.536 103.766C119.013 106.476 120.868 108.773 123.455 109.72C123.514 109.74 123.574 109.764 123.638 109.784C125.691 110.476 127.952 110.11 129.727 108.864C132.7 106.767 139.155 101.486 142.216 93.3109V114.078H120.056C120.056 114.078 116.621 101.076 116.613 92.8055V92.8015V92.7975Z" fill="#DD4726"/>
<path d="M99.3556 74.0286C99.3556 74.0286 93.7877 80.3646 94.1419 85.8289C94.1777 85.8648 91.8336 88.8377 91.8336 88.8377C91.8336 88.8377 91.3879 79.891 99.3556 74.0286Z" fill="#DD4726"/>
<path d="M79.0303 84.5485C79.0303 84.5485 83.3524 86.1006 83.6549 90.0367L79.0303 84.5485Z" fill="#DD4726"/>
<path d="M79.8623 83.6647C79.8623 83.6647 81.7527 83.1911 83.2452 85.5552L79.8623 83.6647Z" fill="#DD4726"/>
<path d="M105.247 90.0365C105.247 90.0365 106.692 95.2302 112.829 96.249C112.829 96.249 105.211 96.5634 105.247 90.0365Z" fill="#DD4726"/>
<path d="M101.655 59.4365C101.655 59.4365 104.107 59.4365 105.245 61.0882C106.379 62.7398 107.243 66.7515 107.243 66.7515L108.54 72.781L101.655 59.4365Z" fill="#DD4726"/>
<path d="M110.098 67.777L116.609 58.9019C116.609 58.9019 118.097 57.6722 118.925 58.5119L117.309 56.4424C117.309 56.4424 111.932 60.6212 110.098 67.777Z" fill="#DD4726"/>
<path d="M106.481 33.0397C106.481 32.2756 106.954 31.6229 107.623 31.3563C107.416 31.2727 107.189 31.2249 106.954 31.2249C105.955 31.2249 105.147 32.0328 105.147 33.0318C105.147 34.0307 105.955 34.8386 106.954 34.8386C107.189 34.8386 107.416 34.7909 107.623 34.7073C106.954 34.4407 106.481 33.7919 106.481 33.0238V33.0318V33.0397Z" fill="#E37F63"/>
<path d="M111.888 28.082C112.301 28.082 112.636 27.4833 112.636 26.7448C112.636 26.0062 112.301 25.4075 111.888 25.4075C111.475 25.4075 111.14 26.0062 111.14 26.7448C111.14 27.4833 111.475 28.082 111.888 28.082Z" fill="#051830"/>
<path d="M103.148 28.7126C103.561 28.7126 103.896 28.1139 103.896 27.3753C103.896 26.6368 103.561 26.0381 103.148 26.0381C102.734 26.0381 102.399 26.6368 102.399 27.3753C102.399 28.1139 102.734 28.7126 103.148 28.7126Z" fill="#051830"/>
<path d="M105.06 37.7925L112 36.9368C112 36.9368 110.424 41.5614 105.06 37.7925Z" fill="#FFF0E9"/>
<path d="M26.6813 114.036H82.4591C83.9356 114.036 85.1375 115.238 85.1375 116.715H24.0068C24.0068 115.238 25.2088 114.036 26.6853 114.036H26.6813Z" fill="#051830"/>
<path d="M15.7493 87.1257H51.5799C52.4834 87.1257 53.2714 87.7426 53.4863 88.6142L60.5107 116.704H20.6246L13.8429 89.5654C13.5325 88.3276 14.4717 87.1217 15.7493 87.1217V87.1257Z" fill="#112147"/>
<path d="M110.098 1.68784C110.098 1.68784 120.537 0.5098 125.022 7.27557C129.507 14.0413 128.719 19.4619 128.719 19.4619L130.733 19.7723C130.733 19.7723 131.983 11.9957 126.889 5.54432C121.794 -0.907034 111.853 -0.433431 110.098 1.69182V1.68784Z" fill="#FFF0E9"/>
<path d="M110.398 23.1386C110.398 23.1386 112.209 22.3227 114.243 24.0182L112.926 23.6918C112.333 23.5446 111.712 23.5286 111.111 23.6401L110.032 23.8431L110.402 23.1466H110.398V23.1426V23.1386Z" fill="#051830"/>
<path d="M104.172 23.4009C104.172 23.4009 102.254 22.8995 100.526 24.9013L101.776 24.3601C102.341 24.1133 102.946 23.9939 103.559 24.0098L104.653 24.0297L104.172 23.4009Z" fill="#051830"/>
<path d="M65.2666 106.138L66.4208 103.432C66.4208 103.432 65.2666 104.661 65.2666 106.138Z" fill="#E37F63"/>
<path d="M60.5123 110.255L60.8625 106.192C60.8625 106.192 60.0745 107.935 60.5123 110.255Z" fill="#E37F63"/>
<path d="M70.7354 107.974C70.7354 107.974 73.0556 108.408 73.5292 108.802C73.5292 108.802 72.192 107.385 70.7354 107.974Z" fill="#E37F63"/>
<path d="M97.221 122.599H69.4336L98.017 116.705H123.882L97.221 122.599Z" fill="#FFF1EA"/>
<path d="M96.5976 122.177L121.348 116.705H98.0065L71.4688 122.177H96.5976Z" fill="#FCDACE"/>
<path d="M96.1546 121.968H68.3633L96.9466 116.074H122.816L96.1546 121.968Z" fill="#FFF1EA"/>
</svg>
