<svg width="110" height="96" viewBox="0 0 110 96" fill="none" xmlns="http://www.w3.org/2000/svg">
<path d="M86.5072 84.779C86.5072 84.779 66.9234 106.742 47.4418 89.0718L25.9755 68.1591C24.02 66.2556 21.3933 65.0478 18.5477 64.7196L16.169 64.4571C8.39097 63.5906 3.54611 56.4359 6.2604 49.8195L15.5853 27.0689C17.3656 22.7367 21.9624 19.8748 27.0992 19.9142L51.484 20.1111C56.6645 20.1505 61.2467 23.1305 62.8957 27.5415C64.6761 32.2807 69.8128 35.3657 75.3581 34.9456C79.736 34.6043 84.3912 35.1163 85.9818 38.3589C88.0686 42.6123 89.0609 50.1477 89.4987 55.0838C89.7614 57.9982 92.0233 60.4531 95.1462 61.2539C100.735 62.6717 102.705 68.8943 98.7798 72.7408L86.5217 84.779H86.5072Z" fill="#C9EDFF"/>
<path d="M81.8855 68.8092L85.3446 64.741C86.4338 63.4724 88.0236 62.7288 89.7016 62.7288H110L103.141 79.0015C101.168 83.6821 96.561 86.7296 91.4385 86.7296H11.025C7.28624 86.7296 4.00375 84.2216 3.07642 80.6346L0 68.8092H81.8855Z" fill="#004070"/>
<path d="M63.6329 63.3267H78.4409V67.4678H63.6329V63.3267Z" fill="#004070"/>
<path d="M47.5885 63.3267H62.3965V67.4678H47.5885V63.3267Z" fill="#004070"/>
<path d="M31.5587 63.3267H46.3667V67.4678H31.5587V63.3267Z" fill="#004070"/>
<path d="M56.9503 58.0919H71.7583V62.233H56.9503V58.0919Z" fill="#004070"/>
<path d="M40.9205 58.0919H55.7285V62.233H40.9205V58.0919Z" fill="#004070"/>
<path d="M53.2116 52.8718H68.0195V57.0129H53.2116V52.8718Z" fill="#004070"/>
<path d="M11.0251 55.2923V49.8972H20.8725V55.2923H27.5405V70.4277H8.53745V55.2923H11.0251ZM22.0648 64.0994H23.6987V61.8393H22.0648V64.0994ZM22.0648 60.8915H23.6987V58.6314H22.0648V60.8915ZM16.8393 64.0994H18.4732V61.8393H16.8393V64.0994ZM16.8393 60.8915H18.4732V58.6314H16.8393V60.8915ZM16.8393 54.1987H18.4732V51.9386H16.8393V54.1987ZM14.8963 51.9386H13.2625V54.1987H14.8963V51.9386ZM11.6139 64.0994H13.2477V61.8393H11.6139V64.0994ZM11.6139 60.8915H13.2477V58.6314H11.6139V60.8915Z" fill="#004070"/>
<path d="M57.3955 49.8972V38.8446C57.3955 34.8931 60.6191 31.6997 64.6081 31.6997H73.5724C77.5614 31.6997 80.785 28.5064 80.785 24.5549V19.8306" stroke="#EA9573" stroke-miterlimit="10"/>
<path d="M52.6084 49.8972V43.8751C52.6084 39.9236 49.3848 36.7303 45.3958 36.7303H36.4315C32.4425 36.7303 29.2189 33.537 29.2189 29.5854V24.8611" stroke="#EA9573" stroke-miterlimit="10"/>
<path d="M48.3247 54.7673V48.7015C48.3247 44.75 45.1011 41.5567 41.1121 41.5567H32.1478C28.1588 41.5567 24.9352 38.3634 24.9352 34.4118V24.8611" stroke="#EA9573" stroke-miterlimit="10"/>
<path d="M26.4513 0C32.8397 0 38.021 5.13262 38.021 11.4609C38.021 17.7892 26.4513 31.5539 26.4513 31.5539C26.4513 31.5539 14.8817 17.8038 14.8817 11.4609C14.8817 5.11804 20.063 0 26.4513 0ZM26.4513 14.8292C28.9979 14.8292 31.0586 12.7878 31.0586 10.2652C31.0586 7.74267 28.9979 5.70129 26.4513 5.70129C23.9048 5.70129 21.8441 7.74267 21.8441 10.2652C21.8441 12.7878 23.9048 14.8292 26.4513 14.8292Z" fill="#EC6625"/>
<path d="M80.6668 5.43103C85.7283 5.43103 89.8335 9.55366 89.8335 14.6367C89.8335 19.7197 80.6668 30.7759 80.6668 30.7759C80.6668 30.7759 71.5002 19.7314 71.5002 14.6367C71.5002 9.54195 75.6053 5.43103 80.6668 5.43103ZM80.6668 17.3422C82.6844 17.3422 84.3172 15.7025 84.3172 13.6763C84.3172 11.6501 82.6844 10.0104 80.6668 10.0104C78.6492 10.0104 77.0165 11.6501 77.0165 13.6763C77.0165 15.7025 78.6492 17.3422 80.6668 17.3422Z" fill="#EC6625"/>
</svg>
